<svg width="80" height="80" viewBox="0 0 56 56" fill="none" xmlns="http://www.w3.org/2000/svg">
<g clip-path="url(#clip0_2070_285)">
<path fill-rule="evenodd" clip-rule="evenodd" d="M40.08 2.94402C34.6677 0.333947 28.5558 -0.453362 22.6587 0.699905C16.7616 1.85317 11.3966 4.885 7.36627 9.34172C3.336 13.7984 0.857239 19.4404 0.300906 25.4234C-0.255427 31.4064 1.14058 37.4086 4.28004 42.532L0.30804 53.112C0.184809 53.4424 0.151137 53.7996 0.210437 54.1472C0.269737 54.4948 0.419902 54.8206 0.645705 55.0915C0.871508 55.3624 1.16492 55.5687 1.4962 55.6897C1.82747 55.8106 2.18483 55.8417 2.53204 55.78L16.4 53.28C23.075 56.4202 30.724 56.7801 37.6644 54.2806C44.6047 51.7811 50.2679 46.627 53.408 39.952C56.5482 33.2771 56.9081 25.628 54.4086 18.6877C51.9092 11.7474 46.755 6.08418 40.08 2.94402Z" fill="white"/>
<path fill-rule="evenodd" clip-rule="evenodd" d="M16 32C17.0609 32 18.0783 31.5786 18.8284 30.8284C19.5786 30.0783 20 29.0609 20 28C20 26.9391 19.5786 25.9217 18.8284 25.1716C18.0783 24.4214 17.0609 24 16 24C14.9391 24 13.9217 24.4214 13.1716 25.1716C12.4214 25.9217 12 26.9391 12 28C12 29.0609 12.4214 30.0783 13.1716 30.8284C13.9217 31.5786 14.9391 32 16 32ZM32 28C32 29.0609 31.5786 30.0783 30.8284 30.8284C30.0783 31.5786 29.0609 32 28 32C26.9391 32 25.9217 31.5786 25.1716 30.8284C24.4214 30.0783 24 29.0609 24 28C24 26.9391 24.4214 25.9217 25.1716 25.1716C25.9217 24.4214 26.9391 24 28 24C29.0609 24 30.0783 24.4214 30.8284 25.1716C31.5786 25.9217 32 26.9391 32 28ZM44 28C44 29.0609 43.5786 30.0783 42.8284 30.8284C42.0783 31.5786 41.0609 32 40 32C38.9391 32 37.9217 31.5786 37.1716 30.8284C36.4214 30.0783 36 29.0609 36 28C36 26.9391 36.4214 25.9217 37.1716 25.1716C37.9217 24.4214 38.9391 24 40 24C41.0609 24 42.0783 24.4214 42.8284 25.1716C43.5786 25.9217 44 26.9391 44 28Z" fill="black"/>
</g>
<defs>
<clipPath id="clip0_2070_285">
<rect width="80" height="80" fill="black"/>
</clipPath>
</defs>
</svg>
