<svg width="240" height="240" viewBox="0 0 240 240" fill="none" xmlns="http://www.w3.org/2000/svg">
<path d="M101.975 202.796L132.019 206.898C137.79 207.494 136.755 216.271 131.067 215.557C136.749 216.211 135.725 224.839 130.099 224.294C135.796 225.014 134.724 233.594 129.162 233.032L75.0382 225.55C74.4657 225.491 73.9103 225.32 73.4042 225.046C72.8982 224.772 72.4514 224.4 72.0895 223.953C71.7277 223.505 71.4581 222.99 71.2961 222.438C71.1342 221.886 71.0831 221.307 71.1459 220.735C71.2088 220.163 71.3842 219.609 71.6622 219.105C71.94 218.601 72.315 218.156 72.7653 217.798C73.2156 217.44 73.7324 217.175 74.2859 217.016C74.8393 216.859 75.4186 216.813 75.9902 216.879C75.4133 216.822 74.8533 216.652 74.3426 216.377C73.832 216.104 73.381 215.73 73.0155 215.28C72.6501 214.83 72.3775 214.311 72.2136 213.756C72.0497 213.2 71.9977 212.617 72.0607 212.041C72.1236 211.464 72.3002 210.906 72.5804 210.399C72.8604 209.891 73.2383 209.444 73.6924 209.084C74.1464 208.723 74.6674 208.455 75.2251 208.298C75.783 208.14 76.3666 208.095 76.9422 208.164C76.3568 208.095 75.7916 207.907 75.2807 207.613C74.7698 207.319 74.3239 206.924 73.97 206.453C73.6161 205.98 73.3615 205.442 73.2215 204.87C73.0817 204.298 73.0593 203.703 73.1561 203.121C73.2527 202.539 73.4663 201.983 73.784 201.487C74.1017 200.989 74.5167 200.563 75.0042 200.231C75.4916 199.899 76.0411 199.671 76.6197 199.558C77.1983 199.445 77.7938 199.45 78.3702 199.573L97.459 202.179" stroke="white" stroke-width="2" stroke-linecap="round" stroke-linejoin="round"/>
<path d="M172.28 66.951C168.816 56.5356 162.502 47.2996 154.054 40.2909C145.606 33.2822 135.363 28.7814 124.487 27.299C93.4701 23.0436 65.6943 44.1661 62.3611 74.4576C61.9069 78.6597 61.9373 82.9001 62.4516 87.0953" stroke="white" stroke-width="2" stroke-linecap="round" stroke-linejoin="round"/>
<path d="M174.677 89.6958C174.924 87.386 175.022 85.0626 174.969 82.7402" stroke="white" stroke-width="2" stroke-linecap="round" stroke-linejoin="round"/>
<path d="M170.456 105.601C170.152 106.312 169.789 106.997 169.371 107.648C159.47 123.951 153.748 133.471 149.724 142.872" stroke="white" stroke-width="2" stroke-linecap="round" stroke-linejoin="round"/>
<path d="M105.415 189.139L138.075 193.606C139.002 188.588 141.169 173.463 141.986 169.506" stroke="white" stroke-width="2" stroke-linecap="round" stroke-linejoin="round"/>
<path d="M76.8029 164.098C76.7577 167.211 75.3392 181.246 75.2214 184.987L93.8723 187.452" stroke="white" stroke-width="2" stroke-linecap="round" stroke-linejoin="round"/>
<path d="M66.7021 102.379C69.1881 109.929 71.1325 115.875 72.6022 121.12" stroke="white" stroke-width="2" stroke-linecap="round" stroke-linejoin="round"/>
<path d="M113.591 71.9932L100.252 70.1617C98.5549 69.8944 96.8215 69.9726 95.1553 70.3919C93.4893 70.8112 91.9253 71.5628 90.5571 72.6017C89.1887 73.6406 88.0445 74.9452 87.1929 76.4373C86.3415 77.9293 85.8003 79.5782 85.6019 81.2847C85.506 82.2318 85.512 83.1864 85.6198 84.1323" stroke="white" stroke-width="2" stroke-linecap="round" stroke-linejoin="round"/>
<path d="M106.65 189.306L109.724 162.832" stroke="white" stroke-width="2" stroke-linecap="round" stroke-linejoin="round"/>
<path d="M100.116 83.3647C100.116 83.3647 97.0222 101.406 101.201 115.129C100.543 116.774 100.072 118.488 99.7997 120.238" stroke="white" stroke-width="2" stroke-linecap="round" stroke-linejoin="round"/>
<path d="M99.0308 101.452C86.3478 101.293 73.6422 101.022 59.5573 103.372C57.3137 98.512 56.9198 93.0002 58.4495 87.8702C75.6874 84.4819 93.2484 83.0183 110.809 83.5065C113.116 83.6029 114.628 82.1487 115.558 80.1602C115.872 79.4788 116.114 78.7665 116.281 78.0349C113.068 77.7635 108.665 76.0035 117.796 67.3867C118.504 66.7152 119.26 66.0957 120.057 65.5327" stroke="white" stroke-width="2" stroke-linecap="round" stroke-linejoin="round"/>
<path d="M178.634 90.983C168.469 87.0203 143.742 84.676 132.784 83.9751C129.258 89.7633 122.181 104.391 125.776 107.035L127.381 101.541C144.586 101.473 157.925 102.969 177.277 106.944C179.367 101.892 179.84 96.316 178.634 90.983Z" stroke="white" stroke-width="2" stroke-linecap="round" stroke-linejoin="round"/>
<path d="M124.739 69.9012C126.094 66.9916 125.151 62.0603 120.056 65.5244C125.121 61.6819 136.835 59.8731 132.626 67.8306C132.626 67.8306 159.009 54.198 151.843 70.4486C188.971 56.8409 180.488 83.4957 167.805 88.1284C153.067 85.5192 138.159 83.9777 123.199 83.516C121.367 83.491 120.689 82.8377 120.689 81.6846C120.689 80.1697 121.969 77.8123 123.289 74.8349C123.534 74.5155 123.852 74.2596 124.216 74.0888C128.65 74.0091 128.579 69.9036 125.98 70.5616C124.753 70.8794 124.486 70.4462 124.739 69.9012Z" stroke="white" stroke-width="2" stroke-linecap="round" stroke-linejoin="round"/>
<path d="M189.146 96.1382C191 96.7899 192.818 97.537 194.595 98.3766C205.186 103.484 198.189 102.288 195.16 101.114" stroke="white" stroke-width="2" stroke-linecap="round" stroke-linejoin="round"/>
<path d="M193.668 105.995C194.945 106.848 196.14 107.817 197.238 108.889C199.838 111.489 198.37 111.85 195.86 110.607C193.802 109.589 191.362 108.592 188.783 107.623C185.337 106.204 181.717 105.255 178.018 104.8" stroke="white" stroke-width="2" stroke-linecap="round" stroke-linejoin="round"/>
<path d="M193.804 107.781C193.748 104.652 192.623 101.637 190.616 99.2358" stroke="white" stroke-width="2" stroke-linecap="round" stroke-linejoin="round"/>
<path d="M195.341 107.216C196.359 107.736 197.646 108.325 198.98 108.957C201.421 110.113 202.461 109.75 200.133 107.648C197.935 105.667 195.441 104.043 192.741 102.833" stroke="white" stroke-width="2" stroke-linecap="round" stroke-linejoin="round"/>
<path d="M196.653 104.955C205.492 109.545 206.864 108.176 199.591 103.527C196.748 101.809 193.742 100.377 190.616 99.2549" stroke="white" stroke-width="2" stroke-linecap="round" stroke-linejoin="round"/>
<path d="M182.613 100.751C183.807 101.023 185.058 100.862 186.144 100.295C187.229 99.7278 188.077 98.7925 188.536 97.6569C189.39 96.004 188.762 95.215 189.711 94.0619C191.181 92.2769 190.893 91.407 188.784 92.321C187.409 92.916 184.195 94.5367 181.731 93.8132C180.698 93.5252 179.661 93.248 179.025 93.0861" stroke="white" stroke-width="2" stroke-linecap="round" stroke-linejoin="round"/>
<path d="M47.8037 92.3579C45.889 92.9277 44.0092 93.6087 42.1739 94.3976C31.3889 99.0778 38.4206 98.1508 41.4956 97.1108" stroke="white" stroke-width="2" stroke-linecap="round" stroke-linejoin="round"/>
<path d="M42.7605 102.04C41.4504 102.842 40.2181 103.765 39.0799 104.797C36.3881 107.307 37.8125 107.712 40.3686 106.582C42.4702 105.654 44.9597 104.78 47.5574 103.914C55.2924 101.335 58.8624 101.518 58.8624 101.518" stroke="white" stroke-width="2" stroke-linecap="round" stroke-linejoin="round"/>
<path d="M42.5571 103.825C42.7467 100.7 43.9968 97.7332 46.101 95.415" stroke="white" stroke-width="2" stroke-linecap="round" stroke-linejoin="round"/>
<path d="M41.0648 103.191C40.0247 103.667 38.7133 104.209 37.3567 104.774C34.8696 105.813 33.8498 105.427 36.2488 103.417C38.5173 101.519 41.0817 100.006 43.8399 98.937" stroke="white" stroke-width="2" stroke-linecap="round" stroke-linejoin="round"/>
<path d="M39.8212 100.864C30.7772 105.068 29.4837 103.613 36.9497 99.304C39.8663 97.7131 42.9313 96.4106 46.1008 95.415" stroke="white" stroke-width="2" stroke-linecap="round" stroke-linejoin="round"/>
<path d="M57.9069 90.1478C55.3984 90.7571 49.59 89.2387 48.2536 88.5877C46.1997 87.5858 45.8605 88.4259 47.2588 90.2823C48.143 91.4568 47.5337 92.1351 48.0275 93.5834C48.5285 95.0518 49.8125 97.314 52.7756 96.7488" stroke="white" stroke-width="2" stroke-linecap="round" stroke-linejoin="round"/>
<path d="M101.382 171.942L102.716 173.751" stroke="white" stroke-width="2" stroke-linecap="round" stroke-linejoin="round"/>
<path d="M102.716 173.751C104.335 175.987 105.779 178.346 107.035 180.805C105.407 187.452 104.819 197.037 99.8449 208.228C97.3504 202.222 95.4941 195.971 94.3066 189.577C93.5153 185.888 92.9274 181.686 91.2126 178.341" stroke="white" stroke-width="2" stroke-linecap="round" stroke-linejoin="round"/>
<path d="M164.21 138.845C167.18 136.538 170.341 134.487 173.66 132.718C180.284 134.414 189.87 135.25 200.993 140.334C194.965 142.769 188.699 144.564 182.297 145.689C177.22 146.719 174.562 146.893 170.212 149.062" stroke="white" stroke-width="2" stroke-linecap="round" stroke-linejoin="round"/>
<path d="M59.7383 171.49L44.9978 147.865" stroke="white" stroke-width="2" stroke-linecap="round" stroke-linejoin="round"/>
<path d="M43.302 155.122L44.9978 147.865L52.2556 149.561" stroke="white" stroke-width="2" stroke-linecap="round" stroke-linejoin="round"/>
<path d="M214.173 85.6485C214.173 86.3685 213.96 87.0722 213.559 87.6709C213.159 88.2695 212.591 88.7361 211.926 89.0116C211.261 89.2872 210.529 89.3592 209.822 89.2188C209.117 89.0783 208.468 88.7316 207.959 88.2225C207.449 87.7134 207.103 87.0647 206.963 86.3587C206.822 85.6526 206.894 84.9206 207.17 84.2554C207.445 83.5903 207.911 83.0217 208.511 82.6218C209.109 82.2218 209.813 82.0083 210.533 82.0083C211.011 82.0079 211.485 82.102 211.926 82.2847C212.368 82.4675 212.77 82.7356 213.108 83.0738C213.446 83.4119 213.714 83.8133 213.897 84.255C214.079 84.6969 214.173 85.1704 214.173 85.6485Z" stroke="white" stroke-width="2" stroke-linecap="round" stroke-linejoin="round"/>
<path d="M157.292 216.255C157.292 216.728 157.152 217.192 156.889 217.586C156.625 217.98 156.251 218.287 155.813 218.469C155.375 218.65 154.893 218.698 154.428 218.605C153.963 218.513 153.537 218.285 153.201 217.949C152.865 217.614 152.637 217.188 152.545 216.722C152.452 216.257 152.5 215.775 152.681 215.337C152.863 214.899 153.17 214.526 153.564 214.261C153.958 213.998 154.422 213.858 154.896 213.858C155.211 213.856 155.524 213.916 155.815 214.036C156.107 214.155 156.372 214.332 156.595 214.555C156.819 214.778 156.995 215.043 157.114 215.335C157.234 215.626 157.295 215.939 157.292 216.255Z" stroke="white" stroke-width="2" stroke-linecap="round" stroke-linejoin="round"/>
<path d="M56.5503 39.7764L64.6673 44.5471" stroke="white" stroke-width="2" stroke-linecap="round" stroke-linejoin="round"/>
<path d="M98.3074 6.9502L101.134 15.8573" stroke="white" stroke-width="2" stroke-linecap="round" stroke-linejoin="round"/>
<path d="M149.944 18.7064L154.443 10.5454" stroke="white" stroke-width="2" stroke-linecap="round" stroke-linejoin="round"/>
<path d="M184.715 51.3981L193.171 47.3057" stroke="white" stroke-width="2" stroke-linecap="round" stroke-linejoin="round"/>
<path d="M30.6642 59.9883L29.7158 68.6919" stroke="white" stroke-width="2" stroke-linecap="round" stroke-linejoin="round"/>
<path d="M34.5306 64.8259L25.8269 63.8774" stroke="white" stroke-width="2" stroke-linecap="round" stroke-linejoin="round"/>
<path d="M128.241 83.7052C124.692 89.001 121.87 94.7497 119.853 100.797L104.435 100.457C103.711 94.6687 105.068 83.3423 105.068 83.3423" stroke="white" stroke-width="2" stroke-linecap="round" stroke-linejoin="round"/>
<path d="M104.932 104.39L105.791 113.434L111.171 117.186L116.869 113.343L118.881 104.593L104.932 104.39Z" stroke="white" stroke-width="2" stroke-linecap="round" stroke-linejoin="round"/>
<path d="M114.608 81.7144H120.666" stroke="white" stroke-width="2" stroke-linecap="round" stroke-linejoin="round"/>
<path d="M142.891 146.689L132.74 155.122L129.344 152.134" stroke="white" stroke-width="2" stroke-linecap="round" stroke-linejoin="round"/>
<path d="M125.776 107.035L123.583 114.587C123.583 114.587 136.898 133.37 121.798 141.6C118.208 143.557 113.093 144.888 106.328 144.615C99.8418 144.258 93.4524 142.884 87.3938 140.541C92.3499 150.012 97.9315 159.143 104.101 167.873C102.389 171.317 99.7208 174.194 96.4164 176.161C93.4357 177.843 90.1261 178.856 86.7155 179.136C78.1962 166.791 70.3967 153.965 63.3558 140.722C62.3111 138.775 61.7609 136.601 61.7535 134.391C61.746 132.182 62.2817 130.005 63.3133 128.051C64.3448 126.097 65.8408 124.426 67.6695 123.186C69.4981 121.946 71.6036 121.175 73.8005 120.939C85.2625 119.716 98.4882 119.492 108.548 121.21" stroke="white" stroke-width="2" stroke-linecap="round" stroke-linejoin="round"/>
<path d="M87.3941 140.541C86.1279 138.212 85.1331 135.996 85.1331 135.996" stroke="white" stroke-width="2" stroke-linecap="round" stroke-linejoin="round"/>
<path d="M100.229 143.999C102.599 154.308 108.572 163.432 117.073 169.727C119.388 171.484 122.092 172.658 124.956 173.15C127.821 173.642 130.761 173.437 133.53 172.553C147.04 168.205 159.736 161.65 171.106 153.156C169.932 145.764 167.042 140.522 160.818 135.996C151.375 141.976 140.06 149.356 129.344 152.134C126.288 149.046 123.792 145.452 121.966 141.511" stroke="white" stroke-width="2" stroke-linecap="round" stroke-linejoin="round"/>
<path d="M119.311 142.729C113.564 145.197 107.546 146.98 101.382 148.042" stroke="white" stroke-width="2" stroke-linecap="round" stroke-linejoin="round"/>
<path d="M116.281 78.0288C117.147 78.0791 118.015 78.0791 118.881 78.0288L115.558 80.1541" stroke="white" stroke-width="2" stroke-linecap="round" stroke-linejoin="round"/>
</svg>
