<svg width="240" height="240" viewBox="0 0 240 240" fill="none" xmlns="http://www.w3.org/2000/svg">
<path d="M131.9 40.4815C131.9 35.6882 128.555 29.5835 123.739 29.5835C118.944 29.5835 114.785 34.2412 114.196 38.9214C114.045 40.1407 114.227 41.3782 114.724 42.5021C113.294 42.6556 111.952 43.2655 110.896 44.2413C109.84 45.2172 109.127 46.5072 108.862 47.9202L109.448 47.8976C109.282 49.497 109.205 51.1044 109.217 52.7123C110.187 44.0848 115.134 47.3371 116.661 50.7012C117.018 48.9377 117.927 47.6941 118.991 47.6941H122.178C122.523 47.7068 122.855 47.8252 123.13 48.0333C123.098 47.8845 123.063 47.7429 123.027 47.6025C127.784 47.5549 131.9 45.226 131.9 40.4815Z" stroke="white" stroke-width="2" stroke-linejoin="round"/>
<path d="M109.702 192.284C94.4994 190.117 80.4178 183.052 69.5918 172.161" stroke="white" stroke-width="2" stroke-linecap="round" stroke-linejoin="round"/>
<path d="M189.989 130.536C188.201 145.559 181.65 159.615 171.296 170.645C160.941 181.675 147.327 189.1 132.446 191.832" stroke="white" stroke-width="2" stroke-linecap="round" stroke-linejoin="round"/>
<path d="M182.686 89.9072C184.816 94.0452 186.528 98.3856 187.796 102.864" stroke="white" stroke-width="2" stroke-linecap="round" stroke-linejoin="round"/>
<path d="M50.8706 141.977V118.711H69.2299C70.0821 118.711 70.8993 118.372 71.5019 117.77C72.1044 117.167 72.4429 116.35 72.4429 115.498V103.315C72.4429 102.893 72.3597 102.476 72.1981 102.087C72.0364 101.698 71.7996 101.345 71.501 101.047C71.2026 100.75 70.8482 100.515 70.4585 100.355C70.0688 100.195 69.6513 100.113 69.2299 100.115H27.311C26.8883 100.115 26.4698 100.199 26.0795 100.361C25.6891 100.524 25.3346 100.761 25.0364 101.061C24.7381 101.36 24.5019 101.716 24.3413 102.107C24.1807 102.498 24.0988 102.917 24.1004 103.34V115.5C24.1004 116.352 24.4389 117.17 25.0414 117.772C25.644 118.375 26.4612 118.713 27.3134 118.713H45.6703V143.919" stroke="white" stroke-width="2" stroke-linecap="round" stroke-linejoin="round"/>
<path d="M50.8706 156.176V150.704" stroke="white" stroke-width="2" stroke-linecap="round" stroke-linejoin="round"/>
<path d="M45.6704 158.946V172.206H50.8707V157.284" stroke="white" stroke-width="2" stroke-linecap="round" stroke-linejoin="round"/>
<path d="M50.8707 129.877H68.8683C70.931 129.877 72.9094 130.697 74.368 132.154C75.8266 133.613 76.6461 135.592 76.6461 137.655V164.402C76.6467 166.467 75.8279 168.446 74.3694 169.907C72.9109 171.367 70.9323 172.19 68.8683 172.192H27.6729C26.652 172.193 25.6408 171.993 24.6974 171.603C23.7538 171.214 22.8964 170.641 22.174 169.92C21.4517 169.199 20.8786 168.342 20.4875 167.4C20.0965 166.456 19.8951 165.446 19.895 164.425V137.65C19.895 135.588 20.7145 133.609 22.173 132.15C23.6316 130.692 25.61 129.872 27.6729 129.872H45.6703" stroke="white" stroke-width="2" stroke-linecap="round" stroke-linejoin="round"/>
<path d="M48.4061 154.867C51.0955 154.655 51.1645 151.381 48.5644 151.407C46.6199 151.428 45.2633 151.499 43.7258 151.566C41.1483 151.685 41.1721 155.115 43.2963 155.206C45.0043 155.181 46.7098 155.067 48.4061 154.867Z" stroke="white" stroke-width="2" stroke-linecap="round" stroke-linejoin="round"/>
<path d="M46.4011 143.944C45.4705 143.921 44.7767 143.921 43.9021 143.921C41.4376 143.898 41.3472 147.335 43.3821 147.539C44.4063 147.606 45.434 147.606 46.4582 147.539" stroke="white" stroke-width="2" stroke-linecap="round" stroke-linejoin="round"/>
<path d="M49.0167 158.556C51.6156 158.272 51.6168 155.119 49.1071 155.209C47.2305 155.277 45.9191 155.393 44.4268 155.503C41.9397 155.688 42.0302 159.001 44.0877 159.031C45.7379 158.959 47.3832 158.801 49.0167 158.556Z" stroke="white" stroke-width="2" stroke-linecap="round" stroke-linejoin="round"/>
<path d="M46.4665 147.608C45.4883 147.632 44.6398 147.721 43.6807 147.742C41.0627 147.81 41.0139 151.297 43.1833 151.431C44.4923 151.511 45.8739 151.341 48.3836 151.205C48.7582 151.216 49.1261 151.104 49.432 150.888C49.7379 150.671 49.9653 150.362 50.0799 150.005C50.1946 149.648 50.1905 149.263 50.068 148.909C49.9456 148.555 49.7116 148.249 49.401 148.04" stroke="white" stroke-width="2" stroke-linecap="round" stroke-linejoin="round"/>
<path d="M76.6461 146.137C75.3574 146.295 62.7635 146.613 56.0709 146.521C54.5561 146.5 54.687 144.083 54.2859 143.469C53.2149 141.828 52.8841 141.838 49.6735 142.041C45.8976 142.279 46.2452 142.448 46.5308 148.915C46.601 150.497 49.3571 150.678 49.8771 145.659C49.4475 149.525 51.2111 152.17 53.8112 153.007" stroke="white" stroke-width="2" stroke-linecap="round" stroke-linejoin="round"/>
<path d="M76.646 159.658C73.3902 159.567 59.372 159.477 50.8706 159.318" stroke="white" stroke-width="2" stroke-linecap="round" stroke-linejoin="round"/>
<path d="M30.9966 106.367L31.9914 108.379L34.2072 108.696L32.6019 110.256L32.9863 112.471L30.9966 111.431L29.0295 112.471L29.3913 110.256L27.8086 108.696L30.0244 108.379L30.9966 106.367Z" stroke="white" stroke-width="2" stroke-linecap="round" stroke-linejoin="round"/>
<path d="M39.6335 106.367L40.6283 108.379L42.8441 108.696L41.2388 110.256L41.6232 112.471L39.6335 111.431L37.6664 112.471L38.0282 110.256L36.4229 108.696L38.6386 108.379L39.6335 106.367Z" stroke="white" stroke-width="2" stroke-linecap="round" stroke-linejoin="round"/>
<path d="M48.2704 106.367L49.2653 108.379L51.4811 108.696L49.8757 110.256L50.2601 112.471L48.2704 111.431L46.2808 112.471L46.6651 110.256L45.0598 108.696L47.2756 108.379L48.2704 106.367Z" stroke="white" stroke-width="2" stroke-linecap="round" stroke-linejoin="round"/>
<path d="M56.9076 106.367L57.9025 108.379L60.1183 108.696L58.513 110.256L58.8747 112.471L56.9076 111.431L54.918 112.471L55.3023 110.256L53.697 108.696L55.9128 108.379L56.9076 106.367Z" stroke="white" stroke-width="2" stroke-linecap="round" stroke-linejoin="round"/>
<path d="M65.5446 106.367L66.5168 108.379L68.7326 108.696L67.1273 110.256L67.5117 112.471L65.5446 111.431L63.5549 112.471L63.9393 110.256L62.334 108.696L64.5498 108.379L65.5446 106.367Z" stroke="white" stroke-width="2" stroke-linecap="round" stroke-linejoin="round"/>
<path d="M188.949 78.8054C186.258 78.7114 186.032 75.4591 188.632 75.3687C190.577 75.3008 191.933 75.3234 193.493 75.3234C196.071 75.3234 196.205 78.7744 194.081 78.941C192.792 79.0446 191.436 78.8923 188.949 78.8054Z" stroke="white" stroke-width="2" stroke-linecap="round" stroke-linejoin="round"/>
<path d="M189.175 82.3101C186.576 82.0257 186.575 78.8734 189.084 78.9638C190.961 79.0317 191.187 79.0114 192.654 79.1221C195.141 79.3077 195.051 82.6183 192.993 82.6492C191.714 82.6287 190.437 82.5153 189.175 82.3101Z" stroke="white" stroke-width="2" stroke-linecap="round" stroke-linejoin="round"/>
<path d="M180.199 77.1327C183.952 77.6087 186.597 72.6559 185.015 69.1514C185.015 69.1514 184.834 66.1894 184.201 61.6674C183.568 57.1454 181.08 56.8289 181.148 57.9142C181.216 58.9995 180.38 64.9899 179.475 66.7547C178.503 68.6527 175.541 68.6908 173.958 68.6992C169.391 68.7218 154.695 67.8174 154.695 67.8174" stroke="white" stroke-width="2" stroke-linecap="round" stroke-linejoin="round"/>
<path d="M154.83 83.6667C159.375 83.5311 189.356 83.011 192.679 82.6719" stroke="white" stroke-width="2" stroke-linecap="round" stroke-linejoin="round"/>
<path d="M189.243 71.7058C186.642 71.9283 186.03 68.8391 188.519 68.45C190.374 68.1596 191.685 68.018 193.177 67.8395C195.664 67.542 196.202 70.7978 194.172 71.231C192.538 71.4736 190.893 71.6321 189.243 71.7058Z" stroke="white" stroke-width="2" stroke-linecap="round" stroke-linejoin="round"/>
<path d="M188.813 75.3234C186.195 75.3472 185.828 72.2045 188.361 72.0224C190.237 71.8867 193.002 71.7998 194.488 71.7511C196.975 71.6678 197.27 74.9736 195.212 75.2104C193.969 75.3532 191.21 75.3008 188.813 75.3234Z" stroke="white" stroke-width="2" stroke-linecap="round" stroke-linejoin="round"/>
<path d="M184.63 65.104C184.924 68.5633 185.082 68.317 193.177 67.841" stroke="white" stroke-width="2" stroke-linecap="round" stroke-linejoin="round"/>
<path d="M203.668 53.5503C205.73 53.5503 207.709 54.3697 209.168 55.8284C210.626 57.287 211.446 59.2653 211.446 61.3281V82.1067C211.447 84.1707 210.627 86.1505 209.169 87.6109C207.71 89.0714 205.731 89.8931 203.668 89.8953H162.472C161.451 89.8968 160.44 89.6971 159.495 89.3078C158.551 88.9183 157.693 88.3467 156.97 87.6256C156.246 86.9044 155.673 86.0479 155.28 85.1048C154.887 84.1617 154.685 83.1507 154.684 82.1293V61.3329C154.683 60.3121 154.883 59.3011 155.272 58.3575C155.662 57.414 156.233 56.5566 156.954 55.8343C157.675 55.1118 158.532 54.5387 159.475 54.1477C160.418 53.7566 161.429 53.5552 162.45 53.5551L203.668 53.5503Z" stroke="white" stroke-width="2" stroke-linecap="round" stroke-linejoin="round"/>
<path d="M115.128 61.102C115.621 60.8777 116.09 60.6051 116.529 60.2881L115.286 62.6847" stroke="white" stroke-width="2" stroke-linecap="round" stroke-linejoin="round"/>
<path d="M119.31 56.9644C119.413 58.8986 119.865 60.7982 120.644 62.5716C121.389 64.3169 122.642 65.798 124.239 66.8223C126.113 67.9564 132.764 67.8612 135.408 72.7009C137.806 77.0861 140.494 91.3768 141.715 99.7425C141.963 101.442 141.616 103.175 140.735 104.649C139.853 106.123 138.49 107.248 136.877 107.834C128.439 110.805 119.691 112.807 110.801 113.801" stroke="white" stroke-width="2" stroke-linecap="round" stroke-linejoin="round"/>
<path d="M116.668 50.7012C115.109 47.2645 110.233 43.5326 109.434 52.8718C109.187 54.8561 109.279 56.8681 109.705 58.8218C110.699 62.4846 113.459 61.8967 115.132 61.1054C115.239 61.6261 115.292 62.1565 115.29 62.6881C115.368 63.6902 115.108 64.6897 114.55 65.526C113.993 66.3624 113.17 66.9873 112.215 67.3005C110.72 67.8158 104.242 68.4036 101.068 76.1862C100.025 78.74 99.3952 81.8161 98.2195 84.2354" stroke="white" stroke-width="2" stroke-linecap="round" stroke-linejoin="round"/>
<path d="M123.787 85.2041L125.641 94.542L107.938 97.4361" stroke="white" stroke-width="2" stroke-linecap="round" stroke-linejoin="round"/>
<path d="M110.131 99.8795C109.126 100.09 108.079 99.971 107.147 99.5391C105.564 98.5217 104.41 95.9418 103.167 92.53C101.382 87.6653 101.133 89.7264 100.929 91.578C100.745 92.4991 101.329 97.9017 99.0976 96.6427C96.2331 94.0187 93.121 91.6786 89.8049 89.655C85.5685 87.4547 85.3067 88.6578 88.5388 91.6221C89.5319 92.5275 90.4755 93.4861 91.365 94.4935C92.4478 95.7098 93.4521 96.9936 94.3721 98.3372C95.7406 100.536 98.261 104.689 101.336 106.793C104.593 109.026 108.148 110.791 111.895 112.038" stroke="white" stroke-width="2" stroke-linecap="round" stroke-linejoin="round"/>
<path d="M97.8994 103.518C96.5428 101.212 92.4469 98.8179 90.4881 97.0329C89.1517 95.8144 86.617 94.0579 85.1522 92.7822C84.7892 92.4669 84.9261 91.6065 87.7071 92.8275C88.3247 93.1012 90.45 94.0484 91.4056 94.5411" stroke="white" stroke-width="2" stroke-linecap="round" stroke-linejoin="round"/>
<path d="M90.3263 96.8875C89.8372 96.7542 89.4171 96.6495 89.1946 96.5995C86.2553 95.8534 86.2541 96.7364 86.6623 96.9839C88.3092 97.9835 91.1212 99.327 92.6313 100.308C94.8483 101.587 96.9513 103.054 98.9169 104.694" stroke="white" stroke-width="2" stroke-linecap="round" stroke-linejoin="round"/>
<path d="M106.834 99.3129C107.255 97.0019 108.304 96.9222 109.366 98.4799C111.461 101.539 112.936 109.83 111.627 112.972C110.882 114.765 109.457 113.532 108.345 110.711" stroke="white" stroke-width="2" stroke-linecap="round" stroke-linejoin="round"/>
<path d="M106.355 109.758L107.78 114.234L87.024 108.56L75.5833 75.4365L97.1984 81.0212L100.884 92.5975" stroke="white" stroke-width="2" stroke-linecap="round" stroke-linejoin="round"/>
<path d="M85.0796 77.9011L83.9265 73.7183L87.205 74.5096L87.9511 78.6472" stroke="white" stroke-width="2" stroke-linecap="round" stroke-linejoin="round"/>
<path d="M117.638 56.2407C116.683 57.1532 115.563 57.8746 114.337 58.3661" stroke="white" stroke-width="2" stroke-linecap="round" stroke-linejoin="round"/>
<path d="M105.225 81.9258C105.225 81.9258 104.776 88.1983 107.305 92.7548L109.747 97.1411" stroke="white" stroke-width="2" stroke-linecap="round" stroke-linejoin="round"/>
<path d="M112.175 113.651L94.3723 148.715C93.4344 150.571 92.9028 152.606 92.8132 154.684C92.7235 156.763 93.0777 158.836 93.8523 160.766C99.4471 174.337 106.282 187.364 114.269 199.679C124.035 198.322 132.288 194.343 137.172 185.864C128.648 173.994 121.503 162.734 116.53 152.492L128.192 133.341C132.962 140.681 138.405 147.562 144.449 153.894C146.547 156.116 149.404 157.47 152.454 157.683C155.502 157.897 158.522 156.955 160.909 155.047C172.503 145.793 183.609 136.145 194.643 126.487C193.746 122.428 191.843 118.659 189.11 115.526C186.377 112.394 182.901 109.998 179 108.559L155.187 131.808C148.999 113.282 141.92 108.198 138.8 106.818" stroke="white" stroke-width="2" stroke-linecap="round" stroke-linejoin="round"/>
<path d="M124.578 139.263L124.261 126.285C125.442 128.708 126.755 131.063 128.196 133.339" stroke="white" stroke-width="2" stroke-linecap="round" stroke-linejoin="round"/>
<path d="M183.07 106.321C189.853 105.735 210.045 104.118 216.747 106.296" stroke="white" stroke-width="2" stroke-linecap="round" stroke-linejoin="round"/>
<path d="M180.515 109.216L185.828 103.179C196.636 101.348 214.114 100.963 220.1 103.925C213.541 108.72 205.106 113.912 197.513 116.608C195.47 117.195 193.543 118.128 191.815 119.367" stroke="white" stroke-width="2" stroke-linecap="round" stroke-linejoin="round"/>
<path d="M131.158 192.962L135.973 200.13C134.979 211.05 130.864 228.053 126.453 233.05C123.162 225.027 120.987 216.59 119.987 207.975C119.764 205.262 119.581 202.753 118.112 200.469L117.279 199.16" stroke="white" stroke-width="2" stroke-linecap="round" stroke-linejoin="round"/>
<path d="M87.7024 77.2231C87.7024 77.2231 91.32 76.183 94.2819 80.2754" stroke="white" stroke-width="2" stroke-linecap="round" stroke-linejoin="round"/>
<path d="M108.685 68.3599C108.428 68.5234 108.231 68.7646 108.122 69.0483C108.014 69.332 107.998 69.6432 108.079 69.936C108.16 70.229 108.333 70.4882 108.572 70.6757C108.811 70.8633 109.104 70.9692 109.408 70.9779C109.66 70.9767 109.907 70.9065 110.122 70.775C110.338 70.6435 110.513 70.4556 110.629 70.2317C109.812 69.8106 109.136 69.1599 108.685 68.3599Z" stroke="white" stroke-width="2" stroke-linecap="round" stroke-linejoin="round"/>
<path d="M110.561 70.8018C110.56 71.1255 110.673 71.4393 110.88 71.6878C111.088 71.9364 111.376 72.1038 111.695 72.1607C112.014 72.2176 112.342 72.1602 112.623 71.9988C112.903 71.8373 113.118 71.582 113.229 71.2779C112.357 70.9821 111.504 70.6348 110.674 70.2378C110.594 70.4146 110.555 70.6076 110.561 70.8018Z" stroke="white" stroke-width="2" stroke-linecap="round" stroke-linejoin="round"/>
<path d="M113.161 71.6856C113.16 72.0265 113.285 72.3556 113.511 72.6104C113.737 72.8652 114.05 73.0276 114.388 73.0668C114.727 73.1059 115.068 73.019 115.346 72.8227C115.625 72.6262 115.821 72.3342 115.898 72.0022C114.994 71.8273 114.103 71.5931 113.23 71.3013C113.183 71.424 113.16 71.5544 113.161 71.6856Z" stroke="white" stroke-width="2" stroke-linecap="round" stroke-linejoin="round"/>
<path d="M115.807 72.2036C115.794 72.5653 115.924 72.9173 116.17 73.1829C116.416 73.4484 116.757 73.6058 117.119 73.6207C117.48 73.6357 117.833 73.5069 118.1 73.2625C118.367 73.0182 118.527 72.6782 118.544 72.3167C117.632 72.272 116.726 72.1585 115.832 71.9775C115.835 72.043 115.807 72.1358 115.807 72.2036Z" stroke="white" stroke-width="2" stroke-linecap="round" stroke-linejoin="round"/>
<path d="M118.565 72.3165C118.565 72.6724 118.705 73.0141 118.954 73.2679C119.204 73.5216 119.543 73.6672 119.899 73.6731C120.084 73.675 120.268 73.638 120.439 73.5645C120.609 73.4909 120.762 73.3824 120.888 73.246C121.013 73.1097 121.109 72.9484 121.169 72.7728C121.228 72.597 121.249 72.4108 121.233 72.2261C120.347 72.3239 119.455 72.3541 118.565 72.3165Z" stroke="white" stroke-width="2" stroke-linecap="round" stroke-linejoin="round"/>
<path d="M122.656 73.352C122.87 73.3512 123.081 73.301 123.273 73.2055C123.464 73.1098 123.631 72.9712 123.76 72.8005C123.889 72.6299 123.977 72.4316 124.018 72.2213C124.057 72.0112 124.047 71.7945 123.99 71.5884C123.117 71.8847 122.215 72.0893 121.3 72.1989C121.353 72.52 121.52 72.8118 121.767 73.0228C122.016 73.2338 122.33 73.3503 122.656 73.352Z" stroke="white" stroke-width="2" stroke-linecap="round" stroke-linejoin="round"/>
<path d="M125.256 72.475C125.498 72.4752 125.735 72.4123 125.943 72.2922C126.152 72.1723 126.326 71.9993 126.447 71.7911C126.569 71.5828 126.633 71.3463 126.634 71.1052C126.636 70.8642 126.574 70.627 126.455 70.4175C125.669 70.9025 124.836 71.3042 123.968 71.6158C124.076 71.8687 124.256 72.0847 124.484 72.2372C124.712 72.3898 124.981 72.4724 125.256 72.475Z" stroke="white" stroke-width="2" stroke-linecap="round" stroke-linejoin="round"/>
<path d="M128.128 68.1338C128.447 68.2315 128.719 68.4394 128.898 68.7203C129.076 69.0012 129.149 69.3365 129.102 69.6662C129.057 69.9959 128.894 70.2983 128.645 70.519C128.395 70.7398 128.077 70.8645 127.743 70.8708C127.509 70.8902 127.273 70.86 127.051 70.782C126.828 70.7042 126.626 70.5803 126.455 70.4186C127.209 69.8223 127.787 69.0327 128.128 68.1338Z" stroke="white" stroke-width="2" stroke-linecap="round" stroke-linejoin="round"/>
<path d="M170.069 33.0205V44.9812" stroke="white" stroke-width="2" stroke-linecap="round" stroke-linejoin="round"/>
<path d="M176.061 38.9893H164.1" stroke="white" stroke-width="2" stroke-linecap="round" stroke-linejoin="round"/>
<path d="M120.621 55.9018C122.238 58.3817 124.691 56.3088 124.691 52.3318C124.691 48.375 122.223 46.2842 120.621 48.7618C120.033 49.8598 119.726 51.0862 119.726 52.3318C119.726 53.5774 120.033 54.8037 120.621 55.9018Z" stroke="white" stroke-width="2" stroke-linecap="round" stroke-linejoin="round"/>
<path d="M122.204 47.6714H119.017C117.633 47.6714 116.526 49.7634 116.53 52.329C116.534 54.8947 117.638 56.97 119.017 56.97H122.003" stroke="white" stroke-width="2" stroke-linecap="round" stroke-linejoin="round"/>
<path d="M108.843 47.943C107.757 47.9882 106.74 50.1362 106.874 52.6911C107.011 55.133 108.142 57.0941 109.429 57.1905C109.07 54.1101 109.085 50.9974 109.473 47.9204L108.843 47.943Z" stroke="white" stroke-width="2" stroke-linecap="round" stroke-linejoin="round"/>
<path d="M109.227 47.7848C109.451 46.5053 110.136 45.3523 111.153 44.5439C112.169 43.7355 113.447 43.3281 114.744 43.3984C116.051 43.358 117.333 43.7571 118.387 44.5318C119.44 45.3065 120.202 46.4121 120.553 47.6717" stroke="white" stroke-width="2" stroke-linecap="round" stroke-linejoin="round"/>
<path d="M63.7584 22.8458C63.5194 22.6066 63.2356 22.4169 62.9234 22.2874C62.6111 22.1579 62.2764 22.0913 61.9383 22.0913C61.6002 22.0913 61.2655 22.1579 60.9531 22.2874C60.6408 22.4169 60.357 22.6066 60.1182 22.8458L59.4625 23.5241L58.8068 22.8458C58.324 22.3631 57.6693 22.0919 56.9867 22.0919C56.304 22.0919 55.6492 22.3631 55.1666 22.8458C54.6838 23.3284 54.4126 23.9832 54.4126 24.6659C54.4126 25.3486 54.6838 26.0033 55.1666 26.486L59.4625 30.7819L63.7584 26.486C63.9975 26.247 64.1873 25.9633 64.3167 25.651C64.4461 25.3387 64.5127 25.004 64.5127 24.6659C64.5127 24.3278 64.4461 23.993 64.3167 23.6808C64.1873 23.3684 63.9975 23.0847 63.7584 22.8458Z" stroke="white" stroke-width="2" stroke-linecap="round" stroke-linejoin="round"/>
<path d="M71.9242 42.1464L80.9218 45.7045L77.4398 36.7795C79.6034 33.6947 80.7496 30.0111 80.7183 26.2433C80.5945 15.4524 70.9484 6.83795 59.1686 6.94981C47.3662 7.06881 37.9033 15.8819 38.0092 26.6443C38.1282 39.3773 51.2586 48.2821 64.3951 45.3428C67.0802 44.75 69.6327 43.6664 71.9242 42.1464Z" stroke="white" stroke-width="2" stroke-linecap="round" stroke-linejoin="round"/>
<path d="M202.017 190.588L193.697 189.39L189.989 181.861L186.281 189.39L177.96 190.588L183.974 196.467L182.55 204.742L189.989 200.831L197.427 204.742L196.003 196.467L202.017 190.588Z" stroke="white" stroke-width="2" stroke-linecap="round" stroke-linejoin="round"/>
<path d="M124.691 51.6284C135.248 52.3493 145.505 55.4489 154.695 60.695" stroke="white" stroke-width="2" stroke-linecap="round" stroke-linejoin="round"/>
<path d="M52.4761 100.127C56.4498 88.0605 63.5946 77.2847 73.1622 68.9274C82.7298 60.5701 94.3682 54.9388 106.859 52.623" stroke="white" stroke-width="2" stroke-linecap="round" stroke-linejoin="round"/>
<path d="M186.643 113.104L173.755 125.155" stroke="white" stroke-width="2" stroke-linecap="round" stroke-linejoin="round"/>
<path d="M129.778 193.844L120.192 179.012" stroke="white" stroke-width="2" stroke-linecap="round" stroke-linejoin="round"/>
<path d="M130.886 113.624C132.627 114.89 134.607 115.787 136.707 116.262C138.806 116.736 140.98 116.777 143.096 116.382" stroke="white" stroke-width="2" stroke-linecap="round" stroke-linejoin="round"/>
<path d="M56.9075 183.059V185.691" stroke="white" stroke-width="2" stroke-linecap="round" stroke-linejoin="round"/>
<path d="M62.028 188.181H59.3958" stroke="white" stroke-width="2" stroke-linecap="round" stroke-linejoin="round"/>
<path d="M56.9075 193.301V190.669" stroke="white" stroke-width="2" stroke-linecap="round" stroke-linejoin="round"/>
<path d="M51.7856 188.181H54.4191" stroke="white" stroke-width="2" stroke-linecap="round" stroke-linejoin="round"/>
<path d="M59.3958 188.181C59.0689 188.181 58.7451 188.117 58.4429 187.992C58.1408 187.867 57.8663 187.683 57.6352 187.453C57.4041 187.221 57.2208 186.947 57.096 186.645C56.971 186.342 56.907 186.019 56.9075 185.691C56.9081 186.019 56.8442 186.342 56.7193 186.645C56.5946 186.947 56.4114 187.222 56.1801 187.453C55.9491 187.683 55.6744 187.868 55.3723 187.993C55.0701 188.118 54.7462 188.181 54.4192 188.181C54.7461 188.181 55.0699 188.244 55.372 188.369C55.674 188.494 55.9486 188.677 56.1798 188.909C56.4109 189.14 56.5942 189.414 56.7191 189.716C56.8439 190.018 56.908 190.342 56.9075 190.669C56.9072 190.342 56.9714 190.018 57.0962 189.716C57.2212 189.415 57.4044 189.14 57.6356 188.909C57.8667 188.678 58.1412 188.495 58.4432 188.37C58.7452 188.245 59.0689 188.181 59.3958 188.181Z" stroke="white" stroke-width="2" stroke-linecap="round" stroke-linejoin="round"/>
<path d="M133.645 196.647C132.474 203.36 128.856 223.29 125.029 229.208" stroke="white" stroke-width="2" stroke-linecap="round" stroke-linejoin="round"/>
</svg>
