<svg width="240" height="240" viewBox="0 0 240 240" fill="none" xmlns="http://www.w3.org/2000/svg">
<path d="M79.897 93.4703C80.1357 92.9638 80.5316 92.5478 81.0257 92.2842C81.5197 92.0206 82.0857 91.9235 82.6394 92.0073C83.1931 92.0911 83.7049 92.3514 84.0989 92.7494C84.4928 93.1474 84.7478 93.6619 84.826 94.2165C83.1266 93.9904 81.4761 93.7416 79.897 93.4703Z" stroke="white" stroke-width="2" stroke-linecap="round" stroke-linejoin="round"/>
<path d="M15.3038 233.05H224.696" stroke="white" stroke-width="2" stroke-linecap="round" stroke-linejoin="round"/>
<path d="M146.429 131.723C147.94 131.722 149.389 131.122 150.459 130.054C151.528 128.985 152.129 127.536 152.13 126.025V105.09" stroke="white" stroke-width="2" stroke-linecap="round" stroke-linejoin="round"/>
<path d="M105.056 110.742V126.002C105.058 127.331 105.521 128.617 106.365 129.642" stroke="white" stroke-width="2" stroke-linecap="round" stroke-linejoin="round"/>
<path d="M93.9105 151.617V121.729" stroke="white" stroke-width="2" stroke-linecap="round" stroke-linejoin="round"/>
<path d="M142.721 185.506H103.094C101.271 185.509 99.4883 184.969 97.9741 183.954C96.4599 182.939 95.2829 181.496 94.5935 179.808" stroke="white" stroke-width="2" stroke-linecap="round" stroke-linejoin="round"/>
<path d="M163.271 106.605V176.305C163.276 176.729 163.245 177.152 163.18 177.571" stroke="white" stroke-width="2" stroke-linecap="round" stroke-linejoin="round"/>
<path d="M163.203 53.047C162.903 50.8584 161.804 48.8579 160.118 47.4302C158.432 46.0024 156.278 45.2481 154.07 45.312H103.112C101.923 45.2706 100.737 45.4682 99.626 45.8932C98.5147 46.3182 97.5 46.9619 96.642 47.7862C95.784 48.6104 95.1002 49.5985 94.631 50.6918C94.1618 51.7852 93.9168 52.9616 93.9105 54.1513V83.4551" stroke="white" stroke-width="2" stroke-linecap="round" stroke-linejoin="round"/>
<path d="M98.699 95.3788V89.6263C98.7001 88.7887 98.536 87.9592 98.2159 87.1852C97.8959 86.4112 97.4262 85.7079 96.8339 85.1158C96.2416 84.5236 95.5383 84.0541 94.7642 83.7342C93.9902 83.4142 93.1606 83.2502 92.323 83.2515H46.7734C45.9359 83.2504 45.1065 83.4145 44.3326 83.7345C43.5586 84.0545 42.8554 84.524 42.2633 85.1162C41.6711 85.7083 41.2016 86.4115 40.8816 87.1855C40.5616 87.9594 40.3975 88.7888 40.3986 89.6263V115.558C40.3975 116.395 40.5616 117.225 40.8816 117.998C41.2016 118.772 41.6711 119.476 42.2633 120.068C42.8554 120.66 43.5586 121.129 44.3326 121.449C45.1065 121.769 45.9359 121.934 46.7734 121.932H67.2307M98.699 111.194V115.558C98.7001 116.395 98.5361 117.224 98.2164 117.998C97.8966 118.771 97.4274 119.474 96.8356 120.066C96.2438 120.659 95.541 121.128 94.7675 121.448C93.994 121.769 93.1649 121.933 92.3278 121.932H71.805" stroke="white" stroke-width="2" stroke-linecap="round" stroke-linejoin="round"/>
<path d="M185.607 97.747C185.581 97.9044 185.566 98.0635 185.562 98.223C185.558 98.525 185.615 98.8245 185.728 99.1044C185.841 99.3843 186.009 99.6389 186.222 99.8535C186.434 100.068 186.687 100.238 186.966 100.354C187.245 100.47 187.544 100.53 187.846 100.529C188.456 100.526 189.041 100.283 189.473 99.8507C189.905 99.4188 190.149 98.8338 190.152 98.223C190.152 97.6959 189.97 97.1849 189.636 96.777C189.302 96.3692 188.837 96.0896 188.32 95.9858" stroke="white" stroke-width="2" stroke-linecap="round" stroke-linejoin="round"/>
<path d="M65.855 93.1085L66.5095 91.978L67.5948 93.8547" stroke="white" stroke-width="2" stroke-linecap="round" stroke-linejoin="round"/>
<path d="M79.897 93.4703C80.1357 92.9638 80.5316 92.5478 81.0257 92.2842C81.5197 92.0206 82.0857 91.9235 82.6394 92.0073C83.1931 92.0911 83.7049 92.3514 84.0989 92.7494C84.4928 93.1474 84.7478 93.6619 84.826 94.2165C83.1266 93.9904 81.4761 93.7416 79.897 93.4703Z" stroke="white" stroke-width="2" stroke-linecap="round" stroke-linejoin="round"/>
<path d="M83.1493 110.448L84.7546 113.206H54.2573L63.8202 96.6343" stroke="white" stroke-width="2" stroke-linecap="round" stroke-linejoin="round"/>
<path d="M158.705 88.7139V59.1519C158.702 57.8905 159.075 56.6568 159.776 55.6078C160.476 54.5587 161.473 53.7416 162.639 53.2602C163.413 52.9398 164.242 52.7752 165.08 52.7759H210.634C211.896 52.7738 213.13 53.1468 214.179 53.8475C215.228 54.5482 216.045 55.545 216.527 56.7112C216.847 57.4847 217.011 58.3141 217.01 59.1519V91.8424C217.012 93.1039 216.639 94.3376 215.938 95.3867C215.237 96.4357 214.241 97.2528 213.075 97.7341C212.301 98.0542 211.471 98.2184 210.634 98.2172H190.21" stroke="white" stroke-width="2" stroke-linecap="round" stroke-linejoin="round"/>
<path d="M168.72 52.7757C168.707 49.3541 167.339 46.077 164.915 43.6618C162.492 41.2466 159.21 39.8901 155.788 39.8892H101.191C99.4925 39.8885 97.8106 40.2226 96.2414 40.8723C94.6722 41.5219 93.2463 42.4744 92.0454 43.6754C90.8444 44.8763 89.8919 46.3022 89.2422 47.8714C88.5926 49.4406 88.2585 51.1225 88.2592 52.8209V83.2516" stroke="white" stroke-width="2" stroke-linecap="round" stroke-linejoin="round"/>
<path d="M88.2592 157.834V121.933" stroke="white" stroke-width="2" stroke-linecap="round" stroke-linejoin="round"/>
<path d="M145.208 190.751H101.19C98.219 190.752 95.3387 189.729 93.0332 187.856C90.7278 185.982 89.1377 183.372 88.5305 180.464" stroke="white" stroke-width="2" stroke-linecap="round" stroke-linejoin="round"/>
<path d="M168.72 106.605V177.82C168.721 180.626 167.808 183.356 166.12 185.596" stroke="white" stroke-width="2" stroke-linecap="round" stroke-linejoin="round"/>
<path d="M202.812 66.951H166.459V60.4619H209.232V66.951H205.435" stroke="white" stroke-width="2" stroke-linecap="round" stroke-linejoin="round"/>
<path d="M197.544 70.4556H199.85" stroke="white" stroke-width="2" stroke-linecap="round" stroke-linejoin="round"/>
<path d="M166.459 89.2873V70.4556H194.877" stroke="white" stroke-width="2" stroke-linecap="round" stroke-linejoin="round"/>
<path d="M203.965 70.4556H209.233V90.5309H195.578" stroke="white" stroke-width="2" stroke-linecap="round" stroke-linejoin="round"/>
<path d="M187.845 100.523V124.239C187.846 126.252 187.449 128.245 186.679 130.105C185.909 131.965 184.78 133.654 183.357 135.078C181.933 136.501 180.244 137.63 178.384 138.401C176.524 139.171 174.531 139.567 172.518 139.567H149.413" stroke="white" stroke-width="2" stroke-linecap="round" stroke-linejoin="round"/>
<path d="M101.983 139.555H84.8951C80.8289 139.552 76.9304 137.935 74.0564 135.058C71.1823 132.182 69.5679 128.282 69.5679 124.216" stroke="white" stroke-width="2" stroke-linecap="round" stroke-linejoin="round"/>
<path d="M69.5511 188.558V201.377" stroke="white" stroke-width="2" stroke-linecap="round" stroke-linejoin="round"/>
<path d="M75.9605 194.968H63.1418" stroke="white" stroke-width="2" stroke-linecap="round" stroke-linejoin="round"/>
<path d="M137.701 73.1855C137.317 74.7004 134.012 74.0269 132.887 73.7805L132.054 73.5842C132.768 75.1859 133.446 76.4009 133.446 76.4009" stroke="white" stroke-width="2" stroke-linecap="round" stroke-linejoin="round"/>
<path d="M142.902 83.9751C140.645 83.153 138.46 82.1473 136.368 80.9679C135.774 80.6506 135.249 80.2168 134.826 79.6924C134.402 79.168 134.089 78.5637 133.904 77.9156C133.745 77.417 133.61 76.8969 133.451 76.3983C135.495 75.8854 137.407 75.1286 137.701 73.1853C138.058 70.8458 136.086 67.3032 132.932 61.9327C132.208 61.8983 131.484 62.0134 130.806 62.2707C131.462 63.9212 131.692 66.1977 130.58 65.0969C128.664 63.1929 126.827 66.2952 130.513 68.5562C130.332 70.4329 130.037 72.1726 129.721 73.9362C129.548 75.2957 129.276 76.6408 128.907 77.9608C128.468 78.8731 127.826 79.6732 127.031 80.3001C126.236 80.927 125.308 81.3642 124.319 81.5784C122.557 82.0891 120.875 82.842 119.321 83.8156C128.68 88.4733 142.883 83.9751 142.883 83.9751H142.902Z" stroke="white" stroke-width="2" stroke-linecap="round" stroke-linejoin="round"/>
<path d="M142.178 104.457L138.013 101.021C139.412 101.613 140.838 102.141 142.286 102.603" stroke="white" stroke-width="2" stroke-linecap="round" stroke-linejoin="round"/>
<path d="M141.997 106.945C142.215 103.96 142.15 104.938 142.291 102.603C149.928 104.923 157.813 106.328 165.781 106.791C167.527 106.907 169.272 106.564 170.845 105.796C179.715 101.475 188.204 96.7332 195.759 90.3548C195.922 84.3001 191.638 77.6611 186.444 76.4009C179.617 82.3247 172.878 86.9383 165.441 89.6944C164.645 89.9895 152.564 87.982 142.879 83.9752" stroke="white" stroke-width="2" stroke-linecap="round" stroke-linejoin="round"/>
<path d="M114.462 106.357L117.016 98.2173L116.563 104.91" stroke="white" stroke-width="2" stroke-linecap="round" stroke-linejoin="round"/>
<path d="M116.409 106.883L116.563 104.91C112.823 107.701 108.6 109.778 104.106 111.036C94.2028 111.703 84.2547 111.003 74.542 108.956C72.757 103.261 73.2973 97.6735 77.2326 92.973C85.8779 94.6113 94.6575 95.4364 103.457 95.4375C109.833 91.6842 114.399 86.823 119.328 83.8159" stroke="white" stroke-width="2" stroke-linecap="round" stroke-linejoin="round"/>
<path d="M119.276 113.953C119.276 113.953 108.019 120.961 103.568 137.193L90.0025 157.472C79.183 159.862 66.6535 160.666 53.2708 160.603" stroke="white" stroke-width="2" stroke-linecap="round" stroke-linejoin="round"/>
<path d="M122.261 151.165L119.344 135.294" stroke="white" stroke-width="2" stroke-linecap="round" stroke-linejoin="round"/>
<path d="M121.085 122.747C119.574 125.552 118.815 128.7 118.882 131.886C118.949 135.071 119.841 138.185 121.47 140.924C121.579 141.107 124.386 146.982 124.386 146.982" stroke="white" stroke-width="2" stroke-linecap="round" stroke-linejoin="round"/>
<path d="M56.5624 178.837C51.0015 179.628 45.3454 181.796 41.4613 186.637C37.727 191.291 31.3653 196.226 28.2451 194.237" stroke="white" stroke-width="2" stroke-linecap="round" stroke-linejoin="round"/>
<path d="M118.282 105.316L119.276 113.952C125.677 112.301 132.392 112.301 138.792 113.952L140.23 105.339" stroke="white" stroke-width="2" stroke-linecap="round" stroke-linejoin="round"/>
<path d="M139.646 108.775C141.115 108.255 141.997 107.623 141.997 106.945C141.997 106.357 141.365 105.813 140.234 105.339C135.308 103.276 123.256 103.284 118.282 105.317C117.472 105.648 116.201 106.309 116.435 107.156C116.594 107.736 117.396 108.287 118.666 108.73" stroke="white" stroke-width="2" stroke-linecap="round" stroke-linejoin="round"/>
<path d="M200.483 74.3038C200.981 73.8064 202.45 72.4962 203.174 71.6597" stroke="white" stroke-width="2" stroke-linecap="round" stroke-linejoin="round"/>
<path d="M195.058 73.9592C195.782 73.5296 196.46 73.1262 197.047 72.7168" stroke="white" stroke-width="2" stroke-linecap="round" stroke-linejoin="round"/>
<path d="M202.745 76.0903L200.506 78.0515" stroke="white" stroke-width="2" stroke-linecap="round" stroke-linejoin="round"/>
<path d="M200.664 81.3751C200.664 81.3751 201.951 80.1613 202.349 79.8281" stroke="white" stroke-width="2" stroke-linecap="round" stroke-linejoin="round"/>
<path d="M138.787 113.953C155.788 151.73 161.779 178.57 178.011 214.874C171.904 219.216 166.445 220.024 159.044 219.825L124.386 146.982L122.261 151.165C118.15 158.348 113.47 165.189 108.267 171.625C106.491 173.932 104.268 175.858 101.732 177.287C99.1955 178.717 96.397 179.62 93.5035 179.944C80.4786 181.45 67.3519 181.882 54.2561 181.236" stroke="white" stroke-width="2" stroke-linecap="round" stroke-linejoin="round"/>
<path d="M174.978 216.794L177.556 221.904C182.891 223.464 188.878 227.647 192.929 231.083C193.104 231.23 193.23 231.427 193.288 231.649C193.347 231.87 193.336 232.103 193.256 232.318C193.178 232.533 193.036 232.718 192.848 232.849C192.661 232.98 192.438 233.05 192.209 233.05C180.724 233.039 172.654 232.931 163.411 232.914C163.07 232.913 162.734 232.841 162.422 232.704C162.11 232.567 161.829 232.367 161.598 232.117C161.366 231.867 161.189 231.571 161.077 231.249C160.966 230.928 160.921 230.586 160.948 230.246C161.192 227.393 161.8 224.582 162.755 221.882L161.513 219.869" stroke="white" stroke-width="2" stroke-linecap="round" stroke-linejoin="round"/>
<path d="M52.3128 179.738C53.1779 181.076 54.0978 181.48 54.9117 181.094C57.043 180.086 57.5119 174.787 57.5119 172.391C57.5119 168.847 56.429 161.06 53.4778 160.616C52.6162 160.486 51.788 161.176 51.1597 162.647" stroke="white" stroke-width="2" stroke-linecap="round" stroke-linejoin="round"/>
<path d="M45.055 163.367C43.5748 164.114 42.224 165.093 41.0542 166.267C36.8342 170.656 33.3934 175.732 30.8797 181.278C28.5568 186.187 27.1003 190.984 27.6251 193.192C27.9821 194.713 29.2316 194.761 30.6096 194.015C37.3616 190.359 50.9181 166.526 47.3172 163.418C46.9929 163.175 46.6004 163.039 46.1949 163.03C45.7894 163.021 45.3912 163.139 45.0562 163.367H45.055Z" stroke="white" stroke-width="2" stroke-linecap="round" stroke-linejoin="round"/>
<path d="M133.429 112.958C133.429 112.958 132.525 123.606 134.857 128.942C137.19 134.278 170.736 218.558 170.736 218.558" stroke="white" stroke-width="2" stroke-linecap="round" stroke-linejoin="round"/>
<path d="M121.221 140.63C116.155 149.135 110.646 157.368 104.717 165.295C100.949 170.094 94.8601 171.427 88.7792 171.873C78.3833 172.649 67.9506 172.823 57.5345 172.393" stroke="white" stroke-width="2" stroke-linecap="round" stroke-linejoin="round"/>
<path d="M71.8455 121.932C71.8461 122.389 71.711 122.836 71.4574 123.215C71.2038 123.595 70.8431 123.891 70.421 124.065C70.1058 124.196 69.7653 124.256 69.4242 124.239C69.0831 124.223 68.75 124.131 68.4489 123.969C68.1479 123.808 67.8864 123.582 67.6835 123.307C67.4806 123.033 67.3414 122.716 67.2759 122.381C67.2097 122.046 67.2186 121.701 67.302 121.37C67.3854 121.039 67.5412 120.731 67.7582 120.467C67.9751 120.204 68.2479 119.992 68.5567 119.847C68.8655 119.702 69.2027 119.627 69.544 119.627C70.1538 119.632 70.7373 119.876 71.1682 120.307C71.599 120.739 71.8424 121.323 71.8455 121.932Z" stroke="white" stroke-width="2" stroke-linecap="round" stroke-linejoin="round"/>
<path d="M22.99 102.242L26.992 107.894L31.6937 99.7095" stroke="white" stroke-width="2" stroke-linecap="round" stroke-linejoin="round"/>
<path d="M130.806 62.2709C131.485 63.9214 131.692 66.1979 130.58 65.0971C128.664 63.1931 126.827 66.2954 130.512 68.5564C130.332 70.4105 130.036 72.174 129.721 73.9364C129.544 75.2952 129.272 76.64 128.907 77.961C128.402 78.3114 127.803 78.5006 127.189 78.5037C126.908 78.5006 126.628 78.4626 126.356 78.3906C126.301 78.7942 126.165 79.1825 125.955 79.5319C125.746 79.8813 125.468 80.1845 125.138 80.4233C124.808 80.662 124.433 80.8313 124.036 80.9209C123.638 81.0105 123.227 81.0184 122.826 80.9443C122.291 80.8457 121.792 80.6039 121.383 80.2446C121.124 80.7336 120.735 81.1417 120.259 81.424C119.783 81.7063 119.238 81.852 118.685 81.845C118.131 81.838 117.59 81.6786 117.122 81.3843C116.653 81.09 116.275 80.6722 116.028 80.1768C115.606 80.517 115.101 80.7378 114.565 80.8159C114.029 80.8941 113.481 80.8269 112.98 80.6213C112.479 80.4156 112.042 80.0792 111.715 79.647C111.389 79.2148 111.184 78.7028 111.123 78.1645C110.609 78.2941 110.07 78.2861 109.56 78.1412C109.05 77.9963 108.587 77.7198 108.218 77.3393C107.849 76.9589 107.587 76.488 107.458 75.9739C107.329 75.4599 107.337 74.921 107.482 74.4112C106.943 74.3368 106.435 74.1178 106.01 73.7774C105.585 73.4371 105.261 72.9882 105.071 72.4783C104.88 71.9684 104.832 71.4166 104.93 70.8813C105.028 70.3461 105.27 69.8474 105.628 69.4382C105.14 69.1787 104.732 68.7897 104.45 68.3137C104.168 67.8377 104.022 67.2933 104.029 66.74C104.036 66.1868 104.196 65.6462 104.49 65.1776C104.784 64.7089 105.201 64.3303 105.696 64.0832C105.359 63.6606 105.141 63.1556 105.065 62.6205C104.988 62.0854 105.056 61.5395 105.261 61.0394C105.466 60.5393 105.801 60.103 106.232 59.7758C106.662 59.4486 107.172 59.2422 107.708 59.1781C107.579 58.6641 107.586 58.125 107.731 57.6149C107.876 57.1049 108.152 56.6421 108.533 56.273C108.913 55.9039 109.384 55.6416 109.899 55.5125C110.413 55.3835 110.952 55.3922 111.462 55.5378C111.535 55.0006 111.751 54.4931 112.089 54.0687C112.426 53.6443 112.872 53.3189 113.379 53.1267C113.886 52.9346 114.435 52.8828 114.969 52.9768C115.503 53.0709 116.001 53.3074 116.412 53.6612C116.672 53.1726 117.061 52.7649 117.537 52.4828C118.013 52.2008 118.557 52.0552 119.11 52.0623C119.664 52.0693 120.204 52.2285 120.673 52.5225C121.141 52.8166 121.52 53.234 121.767 53.729C122.189 53.3899 122.694 53.17 123.229 53.0923C123.765 53.0146 124.312 53.082 124.812 53.2874C125.313 53.4927 125.749 53.8286 126.076 54.26C126.403 54.6914 126.608 55.2025 126.67 55.7401C127.184 55.6109 127.722 55.6192 128.232 55.7641C128.741 55.909 129.204 56.1855 129.573 56.5657C129.941 56.946 130.204 57.4166 130.333 57.9303C130.462 58.444 130.454 58.9827 130.309 59.4922C130.934 59.5792 131.516 59.859 131.974 60.2928C132.432 60.7265 132.743 61.2924 132.864 61.9115C132.161 61.8869 131.46 62.0093 130.806 62.2709Z" stroke="white" stroke-width="2" stroke-linecap="round" stroke-linejoin="round"/>
<path d="M192.39 35.3687L183.325 44.4115" stroke="white" stroke-width="2" stroke-linecap="round" stroke-linejoin="round"/>
<path d="M192.367 44.4341L183.347 35.3687" stroke="white" stroke-width="2" stroke-linecap="round" stroke-linejoin="round"/>
<path d="M204.87 199.274C204.922 199.386 204.952 199.506 204.958 199.629C204.963 199.752 204.945 199.875 204.903 199.99C204.861 200.106 204.796 200.212 204.713 200.303C204.63 200.393 204.529 200.466 204.417 200.518C204.306 200.57 204.186 200.6 204.063 200.606C203.94 200.612 203.817 200.593 203.701 200.551C203.586 200.509 203.48 200.444 203.389 200.361C203.299 200.278 203.225 200.177 203.174 200.066L198.335 189.666C198.252 189.448 198.254 189.206 198.341 188.989C198.429 188.772 198.594 188.596 198.806 188.496C199.017 188.396 199.258 188.38 199.481 188.45C199.704 188.52 199.893 188.672 200.008 188.875L204.87 199.274Z" stroke="white" stroke-width="2" stroke-linecap="round" stroke-linejoin="round"/>
<path d="M196.347 183.245L199.172 189.282" stroke="white" stroke-width="2" stroke-linecap="round" stroke-linejoin="round"/>
<path d="M189.338 168.233C188.228 168.751 187.246 169.509 186.465 170.452C185.683 171.395 185.12 172.499 184.816 173.686C184.513 174.873 184.476 176.112 184.709 177.315C184.942 178.517 185.439 179.653 186.164 180.64C187.134 181.959 188.474 182.961 190.013 183.52C191.552 184.079 193.222 184.169 194.813 183.779C196.403 183.389 197.842 182.537 198.949 181.33C200.055 180.123 200.779 178.615 201.029 176.996C201.278 175.377 201.041 173.72 200.348 172.235C199.417 170.246 197.734 168.708 195.67 167.957C193.606 167.207 191.329 167.306 189.338 168.233Z" stroke="white" stroke-width="2" stroke-linecap="round" stroke-linejoin="round"/>
<path d="M94.0271 17.6767C93.6153 17.6303 93.3024 17.5815 93.1346 17.1258C92.8966 16.5058 92.4884 15.9893 93.0037 15.4467C93.4924 14.956 93.7667 14.2917 93.7667 13.5992C93.7667 12.9067 93.4924 12.2424 93.0037 11.7517L91.7387 10.5117C91.2483 10.0249 90.5853 9.75162 89.8942 9.75162C89.2031 9.75162 88.5401 10.0249 88.0497 10.5117C87.5332 11.0282 86.9906 10.6153 86.3956 10.382C86.2335 10.3215 86.0942 10.212 85.9972 10.0687C85.9001 9.92534 85.8501 9.75537 85.8542 9.58234C85.8554 9.23928 85.7888 8.89937 85.6581 8.58218C85.5274 8.26499 85.3352 7.9768 85.0926 7.73422C84.85 7.49164 84.5618 7.29946 84.2446 7.16876C83.9275 7.03806 83.5875 6.97142 83.2445 6.97267H81.4595C81.1166 6.97173 80.7769 7.0386 80.4599 7.16943C80.1429 7.30025 79.8549 7.49246 79.6125 7.735C79.3701 7.97753 79.178 8.2656 79.0473 8.58264C78.9166 8.89968 78.8499 9.23943 78.851 9.58234C78.851 10.3059 78.1787 10.4153 77.5848 10.6676C77.4296 10.7355 77.2574 10.7545 77.0911 10.7219C76.9248 10.6894 76.7725 10.6069 76.6543 10.4856C76.1638 9.99867 75.5008 9.72544 74.8098 9.72544C74.1187 9.72544 73.4557 9.99867 72.9653 10.4856L71.6658 11.7517C71.1759 12.2418 70.9007 12.9063 70.9007 13.5992C70.9007 14.2921 71.1759 14.9566 71.6658 15.4467C72.1822 15.9631 71.7693 16.5058 71.5349 17.1258C71.4745 17.2881 71.3651 17.4276 71.2218 17.5249C71.0784 17.6222 70.9084 17.6723 70.7352 17.6684C70.3923 17.6676 70.0527 17.7346 69.7358 17.8655C69.4189 17.9964 69.1309 18.1886 68.8886 18.4311C68.6462 18.6736 68.4541 18.9616 68.3233 19.2785C68.1926 19.5955 68.1258 19.9352 68.1267 20.2781L68.1529 22.0631C68.1521 22.4059 68.219 22.7455 68.3498 23.0624C68.4806 23.3793 68.6727 23.6672 68.9151 23.9097C69.1574 24.1522 69.4453 24.3444 69.7621 24.4753C70.079 24.6063 70.4186 24.6734 70.7614 24.6727C71.4849 24.6727 71.5944 25.3451 71.8467 25.9389C71.9196 26.0966 71.9413 26.2732 71.9089 26.4439C71.8765 26.6146 71.7915 26.7709 71.6658 26.8909C71.1772 27.3804 70.9027 28.0438 70.9027 28.7354C70.9027 29.427 71.1772 30.0904 71.6658 30.5799L72.9319 31.8461C73.4224 32.3329 74.0854 32.6062 74.7764 32.6062C75.4675 32.6062 76.1305 32.3329 76.6209 31.8461C77.1374 31.3284 77.68 31.7413 78.275 31.9746C78.4369 32.036 78.5759 32.1459 78.673 32.2892C78.7701 32.4325 78.8206 32.6023 78.8177 32.7754C78.8161 33.1192 78.8826 33.4598 79.0133 33.7777C79.1441 34.0956 79.3365 34.3845 79.5794 34.6276C79.8224 34.8708 80.1111 35.0635 80.4288 35.1945C80.7466 35.3255 81.0872 35.3923 81.4309 35.3911L83.2397 35.3649C83.5823 35.3652 83.9217 35.2979 84.2382 35.1668C84.5548 35.0357 84.8424 34.8435 85.0845 34.601C85.3266 34.3586 85.5185 34.0707 85.6491 33.754C85.7798 33.4373 85.8466 33.0978 85.8458 32.7552C85.8458 32.0317 86.5182 31.9294 87.1132 31.6699C87.271 31.5972 87.4477 31.5756 87.6184 31.6082C87.7891 31.6409 87.9453 31.7261 88.0652 31.852C88.5556 32.3389 89.2186 32.6121 89.9097 32.6121C90.6007 32.6121 91.2638 32.3389 91.7542 31.852L92.9942 30.5858C93.481 30.0954 93.7543 29.4324 93.7543 28.7413C93.7543 28.0503 93.481 27.3873 92.9942 26.8968C92.4777 26.3804 92.8906 25.8377 93.1239 25.2178C93.1853 25.0559 93.2952 24.9169 93.4385 24.8198C93.5818 24.7227 93.7516 24.6722 93.9247 24.6751C94.2686 24.6772 94.6095 24.611 94.9276 24.4806C95.2458 24.3501 95.535 24.1579 95.7784 23.915C96.0218 23.6721 96.2147 23.3834 96.3459 23.0655C96.4771 22.7477 96.544 22.4069 96.5427 22.0631V20.2781C96.5431 19.6027 96.2808 18.9537 95.8113 18.4683C95.3419 17.9828 94.702 17.699 94.0271 17.6767Z" stroke="white" stroke-width="2" stroke-linecap="round" stroke-linejoin="round"/>
<path d="M82.3354 27.8217C81.0174 27.8217 79.729 27.4308 78.6331 26.6986C77.5372 25.9663 76.683 24.9255 76.1787 23.7079C75.6743 22.4902 75.5423 21.1503 75.7994 19.8576C76.0566 18.5649 76.6913 17.3775 77.6232 16.4455C78.5552 15.5135 79.7426 14.8788 81.0353 14.6217C82.328 14.3646 83.6679 14.4965 84.8856 15.0009C86.1033 15.5053 87.1441 16.3594 87.8763 17.4553C88.6086 18.5512 88.9994 19.8396 88.9994 21.1577C89.0024 22.0336 88.8321 22.9015 88.4982 23.7114C88.1644 24.5212 87.6736 25.2571 87.0542 25.8765C86.4348 26.4959 85.699 26.9866 84.8891 27.3205C84.0793 27.6543 83.2114 27.8246 82.3354 27.8217Z" stroke="white" stroke-width="2" stroke-linecap="round" stroke-linejoin="round"/>
<path d="M205.185 67.8388C205.443 67.0557 205.955 65.1482 205.254 64.7352C204.757 64.4413 203.739 65.7301 202.835 66.951C201.277 69.2131 199.315 71.1678 197.047 72.7166C197.431 71.1565 198.269 67.4032 197.544 66.951H197.187C196.099 68.0403 195.258 69.3512 194.721 70.7947C193.998 72.3536 190.751 75.6416 188.604 77.2469C190.46 78.3912 192.046 79.9252 193.251 81.7428C194.456 83.5604 195.252 85.6182 195.583 87.7736C200.981 83.9573 201.964 83.2362 202.498 82.8447C203.658 81.7284 203.38 79.7899 202.352 79.8256C203.469 78.5071 203.899 76.5662 202.748 76.0902C203.67 74.9823 204.154 72.8487 203.176 71.6539C204.047 70.4989 204.726 69.2106 205.185 67.8388Z" stroke="white" stroke-width="2" stroke-linecap="round" stroke-linejoin="round"/>
<path d="M73.6328 104.543C71.5019 104.022 69.3149 103.765 67.1211 103.779C62.26 103.917 63.9081 102.642 65.5837 102.083C67.4341 101.466 71.9359 100.523 70.2401 99.2572C69.1334 98.7372 68.3361 98.3052 67.7078 97.9482C64.6529 96.8329 61.5353 95.8971 58.3711 95.1458C55.5936 94.4782 56.0446 93.863 56.4944 93.7666C58.1358 93.5331 59.8007 93.5179 61.446 93.7214C61.1069 93.4274 60.7677 93.1347 60.4512 92.8396C57.4762 90.0574 57.6785 88.9126 62.1719 91.3021C66.2097 93.6127 70.6158 95.2093 75.1965 96.0216" stroke="white" stroke-width="2" stroke-linecap="round" stroke-linejoin="round"/>
<path d="M72.5465 100.297C71.7714 99.965 71.0025 99.6182 70.2402 99.2573" stroke="white" stroke-width="2" stroke-linecap="round" stroke-linejoin="round"/>
<path d="M61.452 93.7188C62.761 94.7897 67.045 97.5672 67.7138 97.9456" stroke="white" stroke-width="2" stroke-linecap="round" stroke-linejoin="round"/>
<path d="M46.2723 163.019L55.4353 162.378" stroke="white" stroke-width="2" stroke-linecap="round" stroke-linejoin="round"/>
</svg>
