<svg width="240" height="240" viewBox="0 0 240 240" fill="none" xmlns="http://www.w3.org/2000/svg">
<path d="M79.1021 107.786C78.8462 110.116 78.8614 112.468 79.1473 114.795L84.8224 113.687C82.4935 112.179 80.5375 110.161 79.1021 107.786Z" fill="white"/>
<path d="M46.2712 67.6509C46.2769 67.9895 46.215 68.3258 46.0891 68.6402C45.9632 68.9546 45.7758 69.2406 45.5378 69.4816C45.2999 69.7226 45.0163 69.9137 44.7035 70.0436C44.3908 70.1735 44.0553 70.2397 43.7166 70.2383C43.378 70.2369 43.043 70.1679 42.7314 70.0353C42.4197 69.9027 42.1377 69.7093 41.9018 69.4663C41.6659 69.2233 41.4809 68.9357 41.3577 68.6203C41.2344 68.3048 41.1753 67.968 41.1839 67.6294C41.2008 66.9642 41.4777 66.3321 41.9551 65.8686C42.4326 65.4051 43.0726 65.1471 43.738 65.1499C44.4035 65.1527 45.0413 65.4161 45.5148 65.8836C45.9883 66.3511 46.2599 66.9855 46.2712 67.6509Z" fill="white"/>
<path d="M174.091 144.054C171.705 142.005 169.346 139.925 167.015 137.813L168.71 135.824L174.091 144.054Z" fill="white"/>
<path d="M169.682 110.115L166.133 110.273C166.732 109.912 167.274 109.462 167.738 108.939C168.332 109.414 168.986 109.809 169.682 110.115Z" fill="white"/>
<path d="M93.4833 165.015L85.4103 167.728L84.6416 170.848L104.562 165.919C98.141 165.422 93.5059 164.992 93.4833 165.015Z" fill="white"/>
<path d="M207.646 166.053C205.543 167.07 204.076 166.324 204.209 163.86L207.646 166.053Z" fill="white"/>
<path d="M214.791 154.138C213.615 154.172 212.464 153.796 211.535 153.075C213.072 152.352 214.429 152.555 214.791 154.138Z" fill="white"/>
<path d="M175.855 99.0347C180.083 98.6777 178.613 104.214 176.579 106.249C176.194 106.746 176.352 107.082 177.573 107.176C180.128 107.379 178.953 111.042 174.883 109.821C174.492 109.845 174.116 109.979 173.797 110.205C179.271 112.805 180.761 122.211 185.125 112.823C189.466 103.466 180.58 98.5147 175.855 99.0347Z" fill="white"/>
<path d="M206.018 150.702C206.018 150.966 205.913 151.218 205.727 151.405C205.541 151.591 205.288 151.696 205.024 151.696C204.761 151.696 204.508 151.591 204.322 151.405C204.135 151.218 204.031 150.966 204.031 150.702C204.031 150.439 204.135 150.186 204.322 150C204.508 149.813 204.761 149.708 205.024 149.708C205.288 149.708 205.541 149.813 205.727 150C205.913 150.186 206.018 150.439 206.018 150.702Z" fill="white"/>
<path d="M190.665 149.706C190.665 149.97 190.56 150.222 190.374 150.409C190.187 150.595 189.934 150.7 189.671 150.7C189.407 150.7 189.155 150.595 188.968 150.409C188.782 150.222 188.677 149.97 188.677 149.706C188.677 149.443 188.782 149.19 188.968 149.003C189.155 148.817 189.407 148.712 189.671 148.712C189.934 148.712 190.187 148.817 190.374 149.003C190.56 149.19 190.665 149.443 190.665 149.706Z" fill="white"/>
<path d="M187.997 136.818C187.997 137.082 187.892 137.335 187.706 137.521C187.519 137.707 187.266 137.812 187.003 137.812C186.739 137.812 186.487 137.707 186.3 137.521C186.114 137.335 186.009 137.082 186.009 136.818C186.009 136.555 186.114 136.302 186.3 136.116C186.487 135.929 186.739 135.825 187.003 135.825C187.266 135.825 187.519 135.929 187.706 136.116C187.892 136.302 187.997 136.555 187.997 136.818Z" fill="white"/>
<path d="M172.486 136.818C172.486 137.082 172.381 137.335 172.195 137.521C172.009 137.707 171.756 137.812 171.492 137.812C171.229 137.812 170.976 137.707 170.79 137.521C170.603 137.335 170.499 137.082 170.499 136.818C170.499 136.555 170.603 136.302 170.79 136.116C170.976 135.929 171.229 135.825 171.492 135.825C171.756 135.825 172.009 135.929 172.195 136.116C172.381 136.302 172.486 136.555 172.486 136.818Z" fill="white"/>
<path d="M170.225 121.759C170.225 122.022 170.12 122.275 169.934 122.461C169.748 122.648 169.495 122.752 169.231 122.752C168.968 122.752 168.715 122.648 168.529 122.461C168.342 122.275 168.238 122.022 168.238 121.759C168.238 121.495 168.342 121.243 168.529 121.056C168.715 120.87 168.968 120.765 169.231 120.765C169.495 120.765 169.748 120.87 169.934 121.056C170.12 121.243 170.225 121.495 170.225 121.759Z" fill="white"/>
<path d="M156.477 122.008C156.477 122.271 156.372 122.524 156.186 122.71C156 122.897 155.747 123.001 155.483 123.001C155.22 123.001 154.967 122.897 154.781 122.71C154.594 122.524 154.49 122.271 154.49 122.008C154.49 121.744 154.594 121.492 154.781 121.305C154.967 121.119 155.22 121.014 155.483 121.014C155.747 121.014 156 121.119 156.186 121.305C156.372 121.492 156.477 121.744 156.477 122.008Z" fill="white"/>
<path d="M149.155 105.412C149.155 105.676 149.05 105.928 148.864 106.115C148.678 106.301 148.425 106.406 148.161 106.406C147.898 106.406 147.645 106.301 147.459 106.115C147.272 105.928 147.168 105.676 147.168 105.412C147.168 105.149 147.272 104.896 147.459 104.709C147.645 104.523 147.898 104.418 148.161 104.418C148.425 104.418 148.678 104.523 148.864 104.709C149.05 104.896 149.155 105.149 149.155 105.412Z" fill="white"/>
<path d="M134.77 107.04C134.77 107.304 134.666 107.556 134.479 107.743C134.293 107.929 134.04 108.034 133.777 108.034C133.513 108.034 133.26 107.929 133.074 107.743C132.888 107.556 132.783 107.304 132.783 107.04C132.783 106.777 132.888 106.524 133.074 106.337C133.26 106.151 133.513 106.046 133.777 106.046C134.04 106.046 134.293 106.151 134.479 106.337C134.666 106.524 134.77 106.777 134.77 107.04Z" fill="white"/>
<path d="M134.77 94.3091C134.77 94.5726 134.666 94.8254 134.479 95.0117C134.293 95.198 134.04 95.3027 133.777 95.3027C133.513 95.3027 133.26 95.198 133.074 95.0117C132.888 94.8254 132.783 94.5726 132.783 94.3091C132.783 94.0455 132.888 93.7928 133.074 93.6065C133.26 93.4201 133.513 93.3154 133.777 93.3154C134.04 93.3154 134.293 93.4201 134.479 93.6065C134.666 93.7928 134.77 94.0455 134.77 94.3091Z" fill="white"/>
<path d="M122.499 96.48C122.499 96.7435 122.394 96.9962 122.208 97.1826C122.022 97.3689 121.769 97.4736 121.505 97.4736C121.242 97.4736 120.989 97.3689 120.803 97.1826C120.616 96.9962 120.512 96.7435 120.512 96.48C120.512 96.2164 120.616 95.9637 120.803 95.7774C120.989 95.591 121.242 95.4863 121.505 95.4863C121.769 95.4863 122.022 95.591 122.208 95.7774C122.394 95.9637 122.499 96.2164 122.499 96.48Z" fill="white"/>
<path d="M120.843 82.5522C120.843 82.8158 120.738 83.0685 120.551 83.2549C120.365 83.4412 120.112 83.5459 119.849 83.5459C119.585 83.5459 119.333 83.4412 119.146 83.2549C118.96 83.0685 118.855 82.8158 118.855 82.5522C118.855 82.2887 118.96 82.036 119.146 81.8496C119.333 81.6633 119.585 81.5586 119.849 81.5586C120.112 81.5586 120.365 81.6633 120.551 81.8496C120.738 82.036 120.843 82.2887 120.843 82.5522Z" fill="white"/>
<path d="M108.609 84.3156C108.609 84.4463 108.584 84.5757 108.534 84.6964C108.484 84.817 108.41 84.9267 108.318 85.0191C108.226 85.1115 108.116 85.1848 107.995 85.2347C107.874 85.2847 107.745 85.3105 107.614 85.3105C107.484 85.3105 107.354 85.2847 107.234 85.2347C107.113 85.1848 107.003 85.1115 106.911 85.0191C106.819 84.9267 106.745 84.817 106.695 84.6964C106.645 84.5757 106.62 84.4463 106.62 84.3156C106.62 84.0518 106.724 83.7988 106.911 83.6122C107.098 83.4256 107.351 83.3208 107.614 83.3208C107.878 83.3208 108.131 83.4256 108.318 83.6122C108.505 83.7988 108.609 84.0518 108.609 84.3156Z" fill="white"/>
<path d="M15.543 144.574C15.543 144.676 15.5025 144.774 15.4305 144.846C15.3584 144.918 15.2606 144.958 15.1587 144.958C15.0567 144.958 14.959 144.918 14.8869 144.846C14.8148 144.774 14.7743 144.676 14.7743 144.574C14.7743 144.472 14.8148 144.374 14.8869 144.302C14.959 144.23 15.0567 144.189 15.1587 144.189C15.2606 144.189 15.3584 144.23 15.4305 144.302C15.5025 144.374 15.543 144.472 15.543 144.574Z" stroke="white" stroke-width="2" stroke-linejoin="round"/>
<path d="M53.4386 159.056H47.3339C45.1887 159.044 43.0671 158.608 41.0905 157.775C39.1139 156.941 37.3211 155.726 35.8147 154.199C34.3081 152.671 33.1179 150.861 32.3123 148.872C31.5068 146.884 31.1016 144.756 31.1201 142.61V73.3715C31.1462 71.2243 31.5951 69.1034 32.4413 67.1299C33.2874 65.1564 34.5141 63.3689 36.0514 61.8697C37.5886 60.3705 39.4062 59.1889 41.4003 58.3924C43.3944 57.5959 45.5259 57.2002 47.673 57.2279H146.936C151.292 57.2869 155.448 59.068 158.495 62.182C161.542 65.296 163.233 69.4896 163.197 73.8463V110.929" stroke="white" stroke-width="2" stroke-linecap="round" stroke-linejoin="round"/>
<path d="M152.973 158.141C155.939 156.9 158.474 154.811 160.259 152.136C162.045 149.462 163.002 146.32 163.011 143.104V142.491" stroke="white" stroke-width="2" stroke-linecap="round" stroke-linejoin="round"/>
<path d="M118.424 77.0684H163.237" stroke="white" stroke-width="2" stroke-linecap="round" stroke-linejoin="round"/>
<path d="M31.2344 76.7866H95.9704" stroke="white" stroke-width="2" stroke-linecap="round" stroke-linejoin="round"/>
<path d="M46.2712 67.6509C46.2769 67.9895 46.215 68.3258 46.0891 68.6402C45.9632 68.9546 45.7758 69.2406 45.5378 69.4816C45.2999 69.7226 45.0163 69.9137 44.7035 70.0436C44.3908 70.1735 44.0553 70.2397 43.7166 70.2383C43.378 70.2369 43.043 70.1679 42.7314 70.0353C42.4197 69.9027 42.1377 69.7093 41.9018 69.4663C41.6659 69.2233 41.4809 68.9357 41.3577 68.6203C41.2344 68.3048 41.1753 67.968 41.1839 67.6294C41.2008 66.9642 41.4777 66.3321 41.9551 65.8686C42.4326 65.4051 43.0726 65.1471 43.738 65.1499C44.4035 65.1527 45.0413 65.4161 45.5148 65.8836C45.9883 66.3511 46.2599 66.9855 46.2712 67.6509Z" stroke="white" stroke-width="2" stroke-linecap="round" stroke-linejoin="round"/>
<path d="M53.936 67.6735C53.9418 68.0123 53.8799 68.3488 53.7539 68.6633C53.6279 68.9778 53.4404 69.264 53.2023 69.5051C52.9643 69.7462 52.6805 69.9374 52.3677 70.0674C52.0548 70.1974 51.7191 70.2636 51.3803 70.2622C51.0415 70.2608 50.7064 70.1917 50.3946 70.0591C50.0828 69.9265 49.8007 69.7329 49.5647 69.4898C49.3287 69.2467 49.1436 68.959 49.0202 68.6434C48.8969 68.3278 48.8378 67.9908 48.8464 67.6521C48.8633 66.9866 49.1403 66.3542 49.618 65.8905C50.0956 65.4267 50.736 65.1686 51.4017 65.1714C52.0674 65.1742 52.7056 65.4377 53.1793 65.9054C53.6531 66.3732 53.9247 67.0079 53.936 67.6735Z" stroke="white" stroke-width="2" stroke-linecap="round" stroke-linejoin="round"/>
<path d="M61.6246 67.7189C61.6232 68.0529 61.556 68.3834 61.4269 68.6915C61.2978 68.9996 61.1092 69.2792 60.872 69.5144C60.6349 69.7496 60.3537 69.9358 60.0445 70.0623C59.7354 70.1888 59.4043 70.2532 59.0703 70.2518C58.7363 70.2504 58.4058 70.1832 58.0977 70.0541C57.7896 69.925 57.51 69.7364 57.2748 69.4992C57.0396 69.262 56.8534 68.9809 56.7269 68.6717C56.6004 68.3626 56.536 68.0315 56.5374 67.6975C56.5402 67.0229 56.8109 66.377 57.29 65.902C57.769 65.427 58.4171 65.1617 59.0917 65.1646C59.7663 65.1674 60.4122 65.4381 60.8872 65.9172C61.3622 66.3962 61.6275 67.0443 61.6246 67.7189Z" stroke="white" stroke-width="2" stroke-linecap="round" stroke-linejoin="round"/>
<path d="M82.7197 107.583L90.9057 114.886L80.1195 126.959L85.9303 132.138L96.7164 120.063L104.879 127.366L110.938 98.2661L82.7197 107.583Z" stroke="white" stroke-width="2" stroke-linecap="round" stroke-linejoin="round"/>
<path d="M79.1021 107.786C78.8462 110.116 78.8614 112.468 79.1473 114.795L84.8236 113.687C82.489 112.185 80.5314 110.166 79.1021 107.786Z" stroke="white" stroke-width="2" stroke-linecap="round" stroke-linejoin="round"/>
<path d="M101.465 67.9901V23.1973" stroke="white" stroke-width="2" stroke-linecap="round" stroke-linejoin="round"/>
<path d="M101.454 88.9283V82.688" stroke="white" stroke-width="2" stroke-linecap="round" stroke-linejoin="round"/>
<path d="M101.465 101.386V93.9023" stroke="white" stroke-width="2" stroke-linecap="round" stroke-linejoin="round"/>
<path d="M79.1473 114.795C80.0065 121.374 83.2171 127.528 89.6622 127.528C94.3424 127.528 97.3722 125.516 99.2036 122.305" stroke="white" stroke-width="2" stroke-linecap="round" stroke-linejoin="round"/>
<path d="M103.906 91.4154C103.906 92.0752 103.644 92.708 103.178 93.1745C102.711 93.641 102.079 93.9031 101.419 93.9031C100.759 93.9031 100.126 93.641 99.6597 93.1745C99.1931 92.708 98.931 92.0752 98.931 91.4154C98.931 90.7557 99.1931 90.1229 99.6597 89.6564C100.126 89.1898 100.759 88.9277 101.419 88.9277C102.079 88.9277 102.711 89.1898 103.178 89.6564C103.644 90.1229 103.906 90.7557 103.906 91.4154Z" stroke="white" stroke-width="2" stroke-linecap="round" stroke-linejoin="round"/>
<path d="M101.532 78.826C103.839 78.7546 104.042 75.9546 101.804 75.863C100.131 75.7963 98.9548 75.8177 97.6387 75.8177C95.4229 75.8177 95.3099 78.7832 97.1413 78.9391C98.2313 79.026 99.413 78.8855 101.532 78.826Z" stroke="white" stroke-width="2" stroke-linecap="round" stroke-linejoin="round"/>
<path d="M100.266 69.3691C99.4523 69.3239 98.8644 69.3001 98.0957 69.2501C95.993 69.1311 95.7693 72.0847 97.5078 72.325C98.3908 72.4235 99.2794 72.4613 100.167 72.4381" stroke="white" stroke-width="2" stroke-linecap="round" stroke-linejoin="round"/>
<path d="M101.912 82.0096C104.15 81.8679 104.292 79.1643 102.116 79.1381C100.51 79.1179 99.3571 79.1738 98.091 79.2059C95.943 79.2583 95.899 82.0929 97.6614 82.213C99.0811 82.2249 100.501 82.1571 101.912 82.0096Z" stroke="white" stroke-width="2" stroke-linecap="round" stroke-linejoin="round"/>
<path d="M100.169 72.5119C99.3119 72.4905 98.5682 72.5345 97.734 72.5119C95.4956 72.4667 95.3147 75.4738 97.1461 75.6547C98.2766 75.7678 99.4524 75.6797 101.623 75.6547C101.944 75.6752 102.264 75.5914 102.534 75.4158C102.804 75.2402 103.011 74.9821 103.122 74.6799C103.234 74.3777 103.245 74.0475 103.154 73.7384C103.064 73.4293 102.875 73.1577 102.618 72.9641" stroke="white" stroke-width="2" stroke-linecap="round" stroke-linejoin="round"/>
<path d="M111.496 72.3917C110.357 71.0584 109.103 69.8269 107.75 68.711C106.416 67.6483 105.919 67.8114 103.138 67.878C99.8819 67.9518 100.163 68.1041 100.176 73.6662C100.176 75.0228 102.527 75.2941 103.16 70.9982C102.64 74.2993 104.042 76.6293 106.254 77.4658" stroke="white" stroke-width="2" stroke-linecap="round" stroke-linejoin="round"/>
<path d="M102.686 82.8723C101.647 82.5415 101.002 82.7533 97.7137 82.2202" stroke="white" stroke-width="2" stroke-linecap="round" stroke-linejoin="round"/>
<path d="M168.71 135.824L174.092 144.054" stroke="white" stroke-width="2" stroke-linecap="round" stroke-linejoin="round"/>
<path d="M205.027 166.231C187.807 155.153 180.953 150.395 167.015 137.813" stroke="white" stroke-width="2" stroke-linecap="round" stroke-linejoin="round"/>
<path d="M158.625 108.532L149.423 122.641L163.803 134.218L174.792 121.759" stroke="white" stroke-width="2" stroke-linecap="round" stroke-linejoin="round"/>
<path d="M173.798 110.183C168.853 115.376 168.814 116.216 172.468 119.628C181.552 128.109 183.053 129.649 187.386 133.153C192.133 136.996 199.197 142.244 214.07 152.96" stroke="white" stroke-width="2" stroke-linecap="round" stroke-linejoin="round"/>
<path d="M166.109 110.273L169.679 110.115C168.996 109.783 168.345 109.39 167.735 108.939" stroke="white" stroke-width="2" stroke-linecap="round" stroke-linejoin="round"/>
<path d="M175.855 99.0122C174.585 99.188 173.354 99.5779 172.215 100.165C163.846 104.138 165.726 107.334 167.738 108.939L166.109 110.273C165.413 110.723 164.604 110.966 163.775 110.974C162.947 110.982 162.133 110.755 161.429 110.318C136.915 94.6961 113.01 72.073 112.52 71.5625C108.282 74.8309 104.778 78.9522 102.233 83.66C115.711 96.9387 130.229 109.119 145.647 120.086" stroke="white" stroke-width="2" stroke-linecap="round" stroke-linejoin="round"/>
<path d="M91.3805 143.895C95.149 142.47 99.2165 142.02 103.206 142.586L131.741 146.543" stroke="white" stroke-width="2" stroke-linecap="round" stroke-linejoin="round"/>
<path d="M178.048 124.834L157.223 149.276C156.276 152.434 154.842 155.425 152.973 158.141C150.213 162.119 145.917 166.12 139.565 166.913C130.402 168.059 102.522 165.827 93.5118 164.992L50.5897 179.372C46.466 174.814 44.2344 168.857 44.3493 162.712L91.3805 143.895L91.8565 141.928C92.4785 139.443 93.9135 137.238 95.9333 135.662C97.9531 134.087 100.442 133.232 103.003 133.234H136.965L154.918 106.045" stroke="white" stroke-width="2" stroke-linecap="round" stroke-linejoin="round"/>
<path d="M85.4234 167.7L80.0684 189.095C85.3775 192.306 91.504 193.909 97.7054 193.708L104.556 165.919" stroke="white" stroke-width="2" stroke-linecap="round" stroke-linejoin="round"/>
<path d="M218.77 167.344C220.136 169.069 221.754 170.578 223.569 171.82C227.164 174.285 226.242 175.177 222.736 173.742C220.291 172.742 219.792 172.301 214.369 169.853C210.877 168.045 207.488 166.045 204.218 163.861" stroke="white" stroke-width="2" stroke-linecap="round" stroke-linejoin="round"/>
<path d="M219.811 168.587C219.811 168.587 222.503 169.53 225.848 170.531C229.604 171.655 230.664 170.441 226.572 168.406C224.438 167.478 222.492 166.167 220.829 164.54" stroke="white" stroke-width="2" stroke-linecap="round" stroke-linejoin="round"/>
<path d="M221.711 161.781C221.711 161.781 229.759 164.496 230.279 164.653C234.164 165.82 233.828 167.323 230.098 167.004C226.684 166.713 222.501 165.964 222.501 165.964" stroke="white" stroke-width="2" stroke-linecap="round" stroke-linejoin="round"/>
<path d="M214.791 154.138C214.709 153.667 214.451 153.246 214.07 152.96C212.26 151.711 209.028 154.657 207.525 156.538C205.757 158.755 202.692 164.681 205.026 166.231C205.44 166.429 205.899 166.518 206.358 166.487C206.816 166.456 207.259 166.307 207.644 166.054" stroke="white" stroke-width="2" stroke-linecap="round" stroke-linejoin="round"/>
<path d="M211.535 153.075C213.201 154.089 215.636 154.724 216.89 153.346C218.563 151.515 220.736 148.597 221.571 149.412C222.862 150.676 219.333 154.68 219.333 156.829C219.333 157.553 221.256 158.199 222.07 158.344C223.379 158.582 227.835 159.403 228.288 159.475C232.334 160.107 231.837 161.725 228.31 161.69C226.569 161.626 224.827 161.801 223.133 162.21" stroke="white" stroke-width="2" stroke-linecap="round" stroke-linejoin="round"/>
<path d="M222.117 159.927C221.689 163.062 220.243 165.969 218.002 168.202" stroke="white" stroke-width="2" stroke-linecap="round" stroke-linejoin="round"/>
<path d="M219.472 160.244C217.233 163.093 214.632 164.336 211.648 163.047" stroke="white" stroke-width="2" stroke-linecap="round" stroke-linejoin="round"/>
<path d="M44.4624 165.986C39.5834 167.89 31.777 170.757 27.3907 172.001C22.5117 173.38 18.2788 174.804 18.0979 175.69C17.5101 178.855 30.2359 177.475 35.6671 179.736C36.9459 180.292 38.3192 180.598 39.7131 180.639C42.3311 180.639 44.6421 178.333 48.7797 176.999C46.4433 173.746 44.959 169.96 44.4624 165.986Z" stroke="white" stroke-width="2" stroke-linecap="round" stroke-linejoin="round"/>
<path d="M82.8328 190.587C81.2953 195.607 78.9213 202.865 77.2934 206.844C75.3715 211.571 73.8792 215.776 74.4671 216.454C76.5924 218.874 83.3528 207.998 88.4853 205.127C89.7136 204.467 90.8043 203.579 91.6983 202.509C93.2584 200.542 92.9645 197.467 94.2532 193.623C90.2909 193.329 86.4181 192.3 82.8328 190.587Z" stroke="white" stroke-width="2" stroke-linecap="round" stroke-linejoin="round"/>
<path d="M176.688 106.134C178.665 104.014 180.007 98.6576 175.855 99.0122C180.581 98.5148 189.485 103.465 185.125 112.828C180.758 122.21 179.269 112.783 173.798 110.183C173.938 110.043 174.109 109.937 174.298 109.875C174.486 109.813 174.687 109.796 174.883 109.826C178.953 111.047 180.13 107.377 177.573 107.18C176.577 107.098 176.01 106.861 176.688 106.134Z" stroke="white" stroke-width="2" stroke-linecap="round" stroke-linejoin="round"/>
<path d="M23.2078 146.315C23.3121 146.498 23.3667 146.705 23.3662 146.916C23.3658 147.127 23.3102 147.334 23.2052 147.517C23.1001 147.699 22.9491 147.851 22.7671 147.958C22.5852 148.064 22.3786 148.121 22.1678 148.123H8.14955C7.9384 148.122 7.7313 148.065 7.54869 147.959C7.36608 147.853 7.21429 147.702 7.1083 147.519C7.00272 147.336 6.94714 147.128 6.94714 146.917C6.94714 146.705 7.00272 146.498 7.1083 146.315L14.1186 134.15C14.2249 133.969 14.3769 133.819 14.5594 133.715C14.7419 133.611 14.9485 133.556 15.1587 133.557C15.3688 133.556 15.5754 133.611 15.7579 133.715C15.9404 133.819 16.0924 133.969 16.1987 134.15L23.2078 146.315Z" stroke="white" stroke-width="2" stroke-linecap="round" stroke-linejoin="round"/>
<path d="M15.1587 138.288V142.516" stroke="white" stroke-width="2" stroke-linecap="round" stroke-linejoin="round"/>
<path d="M133.787 187.852V199.564" stroke="white" stroke-width="2" stroke-linecap="round" stroke-linejoin="round"/>
<path d="M139.655 193.708H127.919" stroke="white" stroke-width="2" stroke-linecap="round" stroke-linejoin="round"/>
<path d="M181.761 75.926C181.346 75.514 180.785 75.2827 180.201 75.2827C179.616 75.2827 179.055 75.514 178.641 75.926L178.053 76.4912L177.51 75.926C177.097 75.5122 176.535 75.2798 175.95 75.2798C175.365 75.2798 174.804 75.5122 174.39 75.926C173.976 76.3398 173.744 76.9009 173.744 77.4861C173.744 78.0712 173.976 78.6324 174.39 79.0462L178.079 82.7352L181.768 79.0462C182.181 78.6313 182.412 78.0697 182.41 77.4846C182.409 76.8995 182.175 76.339 181.761 75.926Z" stroke="white" stroke-width="2" stroke-linecap="round" stroke-linejoin="round"/>
<path d="M78.1977 34.0963C78.3745 34.0974 78.5493 34.1334 78.7121 34.2022C78.8749 34.271 79.0226 34.3714 79.1465 34.4974C79.2705 34.6235 79.3683 34.7728 79.4344 34.9367C79.5005 35.1007 79.5335 35.2761 79.5317 35.4529V44.316C79.5306 44.4928 79.4946 44.6676 79.4257 44.8304C79.3569 44.9933 79.2566 45.1409 79.1305 45.2649C79.0045 45.3888 78.8552 45.4866 78.6912 45.5527C78.5272 45.6188 78.3518 45.6519 78.1751 45.65H64.9482C64.7714 45.6491 64.5965 45.6132 64.4336 45.5444C64.2707 45.4756 64.123 45.3753 63.999 45.2492C63.875 45.1231 63.7772 44.9738 63.7112 44.8097C63.6451 44.6457 63.6122 44.4702 63.6142 44.2934V35.4303C63.6152 35.2534 63.651 35.0785 63.7198 34.9156C63.7886 34.7527 63.8889 34.605 64.015 34.4811C64.1411 34.3571 64.2905 34.2593 64.4545 34.1932C64.6185 34.1272 64.794 34.0942 64.9708 34.0963H78.1977Z" stroke="white" stroke-width="2" stroke-linecap="round" stroke-linejoin="round"/>
<path d="M64.0664 34.4131L71.5729 39.8621L79.0794 34.4357" stroke="white" stroke-width="2" stroke-linecap="round" stroke-linejoin="round"/>
<path d="M161.451 110.318C162.65 115.541 165.853 118.171 171.062 118.209" stroke="white" stroke-width="2" stroke-linecap="round" stroke-linejoin="round"/>
<path d="M144.856 151.696C144.083 154.892 144.501 158.26 146.031 161.171" stroke="white" stroke-width="2" stroke-linecap="round" stroke-linejoin="round"/>
<path d="M148.79 126.326L142.549 135.01L145.579 141.657L152.95 143.375L160.321 135.484L148.79 126.326Z" stroke="white" stroke-width="2" stroke-linecap="round" stroke-linejoin="round"/>
<path d="M90.5214 193.12L94.9755 175.89" stroke="white" stroke-width="2" stroke-linecap="round" stroke-linejoin="round"/>
<path d="M46.9722 174.036L65.717 167.049" stroke="white" stroke-width="2" stroke-linecap="round" stroke-linejoin="round"/>
<path d="M84.6416 170.825L104.562 165.919" stroke="white" stroke-width="2" stroke-linecap="round" stroke-linejoin="round"/>
</svg>
