<svg width="240" height="240" viewBox="0 0 240 240" fill="none" xmlns="http://www.w3.org/2000/svg">
<path d="M222.727 90.9396L196.865 118.231L207.119 73.0857L232.981 45.7944L222.727 90.9396Z" stroke="white" stroke-width="2" stroke-linejoin="round"/>
<path d="M185.88 92.3913L179.778 97.9948C181.918 98.4479 183.998 99.1562 185.971 100.105C186.807 100.46 187.574 100.96 188.239 101.579C189.17 102.645 184.18 101.125 181.729 100.853H181.706C182.201 101.114 182.653 101.451 183.044 101.851C183.849 102.772 177.694 100.688 177.146 101.08C179.505 102.146 183.158 104.165 184.043 105.737C185.086 107.62 179.732 103.875 176.261 103.762C178.462 104.783 180.866 106.213 181.729 107.801C182.908 109.95 178.643 106.01 173.562 105.85H173.539C178.394 108.799 180.662 111.223 173.766 108.232C172.501 107.667 171.152 107.314 169.773 107.189L155.912 119.864L196.837 118.276L202.849 91.7788L185.88 92.3913Z" stroke="white" stroke-width="2" stroke-linejoin="round"/>
<path d="M129.415 37.9904C129.511 37.4408 129.409 36.8747 129.126 36.3935C128.844 35.9124 128.399 35.5473 127.872 35.3636C128.211 35.0502 128.451 34.6444 128.563 34.1962C128.676 33.7481 128.654 33.2771 128.501 32.8409C128.35 32.4049 128.073 32.0227 127.707 31.7414C127.341 31.46 126.9 31.2918 126.439 31.2574C126.627 30.8576 126.701 30.4134 126.65 29.9744C126.602 29.5353 126.431 29.1186 126.159 28.7707C125.886 28.4227 125.523 28.1571 125.109 28.0034C124.695 27.8496 124.246 27.8138 123.812 27.8999C123.868 27.4597 123.799 27.0125 123.613 26.6095C123.427 26.2066 123.132 25.8639 122.76 25.6204C122.389 25.377 121.957 25.2426 121.514 25.2325C121.07 25.2224 120.633 25.337 120.251 25.5632C120.169 25.1111 119.96 24.6917 119.647 24.3556C119.334 24.0195 118.93 23.781 118.485 23.6684C118.04 23.5558 117.571 23.5742 117.136 23.7211C116.701 23.8681 116.317 24.1375 116.031 24.497C115.815 24.0639 115.477 23.7032 115.059 23.4589C114.641 23.2146 114.161 23.0974 113.677 23.1214C113.194 23.1455 112.727 23.3098 112.336 23.5945C111.944 23.879 111.644 24.2714 111.471 24.7239C111.197 24.4349 110.855 24.2195 110.475 24.0976C110.096 23.9758 109.692 23.9512 109.301 24.0264C108.91 24.1017 108.544 24.274 108.237 24.5278C107.93 24.7815 107.692 25.1084 107.544 25.4785C107.583 24.9112 107.459 24.3446 107.187 23.8454C106.915 23.3461 106.506 22.935 106.008 22.6603C105.51 22.3856 104.945 22.2588 104.377 22.2948C103.81 22.3308 103.264 22.5282 102.805 22.8636C102.554 22.2834 102.131 21.7938 101.594 21.4602C101.057 21.1267 100.431 20.9651 99.7991 20.9971C99.1675 21.0293 98.5608 21.2534 98.0602 21.6396C97.5595 22.0259 97.1888 22.5558 96.9975 23.1585C96.4782 22.8445 95.8753 22.697 95.2697 22.7361C94.6641 22.7751 94.085 22.9988 93.6104 23.3768C93.1358 23.7549 92.7883 24.2694 92.6149 24.851C92.4416 25.4325 92.4505 26.0533 92.6406 26.6295C92.0332 26.6983 91.4618 26.9526 91.004 27.3579C90.5463 27.7632 90.2248 28.2996 90.0831 28.8944C89.9412 29.489 89.9862 30.1129 90.2119 30.6811C90.4376 31.2492 90.8329 31.7339 91.3439 32.0693C90.8654 32.4569 90.5187 32.9833 90.3522 33.5762C90.1855 34.169 90.207 34.7989 90.4137 35.379C90.6203 35.9592 91.002 36.4608 91.5058 36.8148C92.0097 37.1688 92.6111 37.3576 93.2269 37.3552C93.1033 37.9467 93.1632 38.5618 93.3988 39.1182C93.6342 39.6748 94.034 40.146 94.5445 40.4691C95.0551 40.7924 95.6522 40.9519 96.2559 40.9264C96.8596 40.901 97.4412 40.6919 97.9229 40.327C98.1137 40.8165 98.4345 41.2443 98.8507 41.5646C99.2669 41.8849 99.7627 42.0853 100.285 42.1443C100.189 42.4831 100.169 42.839 100.228 43.1861C100.286 43.5333 100.422 43.8631 100.623 44.1516C100.825 44.4401 101.088 44.6803 101.394 44.8546C101.7 45.0288 102.041 45.1329 102.392 45.1592C102.202 45.5604 102.129 46.0065 102.18 46.4474C102.231 46.8881 102.405 47.3057 102.681 47.6528C102.957 48.0001 103.325 48.2628 103.743 48.4115C104.162 48.5602 104.613 48.5888 105.046 48.494C104.994 48.9351 105.067 49.382 105.256 49.7838C105.445 50.1857 105.743 50.5264 106.116 50.7674C106.489 51.0085 106.922 51.1399 107.366 51.1472C107.81 51.1544 108.248 51.0369 108.628 50.808C108.709 51.2606 108.92 51.6801 109.234 52.0157C109.548 52.3513 109.953 52.5887 110.399 52.699C110.846 52.8095 111.315 52.7881 111.749 52.6378C112.184 52.4873 112.565 52.2143 112.848 51.8515C113.134 52.2618 113.505 52.6057 113.935 52.8601C114.366 53.1144 114.846 53.2735 115.343 53.3261C116.103 51.9533 116.618 50.4583 116.863 48.9083C117.116 47.3302 116.821 45.7132 116.027 44.3258C112.647 43.2141 114.167 39.2441 116.459 40.7867C117.547 41.5354 117.961 41.4876 118.047 40.7641C118.053 40.555 118.116 40.3516 118.228 40.1754C118.341 39.9992 118.499 39.8569 118.687 39.7635C118.888 40.189 119.211 40.5453 119.615 40.7877C120.018 41.0302 120.485 41.1478 120.955 41.1261C121.426 41.1042 121.879 40.9439 122.258 40.6651C122.637 40.3864 122.926 40.0017 123.088 39.5593C123.307 39.7914 123.571 39.9771 123.864 40.1053C124.156 40.2337 124.471 40.3019 124.79 40.3062C125.11 40.3103 125.427 40.2505 125.723 40.1299C126.019 40.0094 126.288 39.8309 126.513 39.6047C127.074 40.9269 127.501 42.3028 127.784 43.7108C128.124 43.519 128.413 43.2464 128.623 42.917C128.834 42.5875 128.961 42.2114 128.992 41.8217C129.023 41.4319 128.959 41.0403 128.803 40.6815C128.648 40.3226 128.407 40.0074 128.101 39.7635C128.443 39.5902 128.739 39.3398 128.967 39.032C129.195 38.7243 129.349 38.3677 129.415 37.9904Z" stroke="white" stroke-width="2" stroke-linejoin="round"/>
<path d="M127.35 52.0329L195.068 40.6445" stroke="white" stroke-width="2" stroke-linecap="round" stroke-linejoin="round"/>
<path d="M16.2341 70.6809L114.918 54.1201" stroke="white" stroke-width="2" stroke-linecap="round" stroke-linejoin="round"/>
<path d="M120.454 62.6953L140.758 80.9349" stroke="white" stroke-width="2" stroke-linecap="round" stroke-linejoin="round"/>
<path d="M140.848 82.9315C141.121 81.9107 141.122 81.1823 140.758 80.9352C140.419 80.7059 139.802 80.9089 139.033 81.4569C137.881 82.3667 136.839 83.4087 135.929 84.5613" stroke="white" stroke-width="2" stroke-linecap="round" stroke-linejoin="round"/>
<path d="M56.0016 109.814C48.3337 103.712 47.6985 103.53 41.6187 96.8833C28.7784 98.6982 14.6462 102.986 8.6571 105.822C17.7987 109.276 27.5898 110.67 37.3322 109.905L47.7451 119.274" stroke="white" stroke-width="2" stroke-linecap="round" stroke-linejoin="round"/>
<path d="M113.671 62.7407L135.063 81.9331" stroke="white" stroke-width="2" stroke-linecap="round" stroke-linejoin="round"/>
<path d="M124.673 97.3825L110.835 85.6538L119.216 98.6947" stroke="white" stroke-width="2" stroke-linecap="round" stroke-linejoin="round"/>
<path d="M174.061 99.9409C174.896 100.122 182.55 102.797 184.156 105.658C185.231 107.562 179.8 103.775 176.284 103.661" stroke="white" stroke-width="2" stroke-linecap="round" stroke-linejoin="round"/>
<path d="M173.312 102.441C175.444 103.213 180.499 105.348 181.819 107.75C183.013 109.93 178.715 105.935 173.562 105.776" stroke="white" stroke-width="2" stroke-linecap="round" stroke-linejoin="round"/>
<path d="M172.722 105.3C178.121 108.453 181.097 111.372 173.766 108.204C169.978 106.567 142.364 105.731 142.364 105.731C139.94 105.48 137.626 104.595 135.653 103.165L124.719 94.8618" stroke="white" stroke-width="2" stroke-linecap="round" stroke-linejoin="round"/>
<path d="M133.339 82.4551L144.456 92.3235C144.456 92.3235 172.314 97.5413 174.446 98.1502C176.579 98.7591 181.686 100.053 183.18 101.757C183.976 102.664 179.598 101.099 176.942 100.963" stroke="white" stroke-width="2" stroke-linecap="round" stroke-linejoin="round"/>
<path d="M135.154 83.9294C135.426 82.9085 135.428 82.1802 135.063 81.933C134.724 81.7038 134.108 81.9079 133.339 82.4548C130.2 84.6888 125.535 91.614 124.56 95.4085C124.321 96.3398 124.364 97.1792 124.673 97.3822C125.031 97.621 126.057 97.3368 126.822 96.4748" stroke="white" stroke-width="2" stroke-linecap="round" stroke-linejoin="round"/>
<path d="M90.009 104.778C95.4861 105.009 100.874 103.333 105.254 100.037" stroke="white" stroke-width="2" stroke-linecap="round" stroke-linejoin="round"/>
<path d="M119.024 99.0386L121.452 94.6602" stroke="white" stroke-width="2" stroke-linecap="round" stroke-linejoin="round"/>
<path d="M120.091 60.5392C118.593 62.7171 115.848 61.7643 112.06 58.1118" stroke="white" stroke-width="2" stroke-linecap="round" stroke-linejoin="round"/>
<path d="M95.7904 132.366L113.421 112.741L94.0018 144.365" stroke="white" stroke-width="2" stroke-linecap="round" stroke-linejoin="round"/>
<path d="M68.049 143.616C69.3295 144.766 70.824 145.653 72.4473 146.225C74.0705 146.797 75.7906 147.044 77.5093 146.951C79.228 146.859 80.9116 146.428 82.4638 145.685C84.0161 144.942 85.4066 143.899 86.556 142.618L95.7856 132.366L92.1367 156.724L77.0732 173.512C80.8528 180.148 86.6783 185.384 93.6794 188.437L109.628 170.674C111.989 168.048 113.657 164.874 114.482 161.44C117.955 146.874 116.774 121.15 119.02 99.0311C109.991 97.3524 106.656 95.3106 99.7819 89.8887C95.3402 93.1352 85.4264 95.5447 75.4637 120.318L60.6079 106.956C53.7544 110.443 48.4419 116.354 45.7032 123.539L68.049 143.616Z" stroke="white" stroke-width="2" stroke-linecap="round" stroke-linejoin="round"/>
<path d="M121.194 53.5172C120.593 53.2932 120.007 53.0324 119.439 52.7363L120.591 55.2437" stroke="white" stroke-width="2" stroke-linecap="round" stroke-linejoin="round"/>
<path d="M122.132 70.3406C120.461 65.5169 119.073 58.1415 121.188 53.5172C129.778 56.6681 129.05 45.5317 126.534 39.6465M99.7808 89.8733C100.746 86.8397 101.4 83.7156 101.732 80.5493C102.31 75.6781 103.723 70.9429 105.911 66.5521C108.048 62.0614 112.955 57.9207 115.463 53.1447C116.214 51.8326 116.691 50.3816 116.866 48.8797C117.119 47.3016 116.824 45.6844 116.03 44.2971C112.65 43.1855 114.177 39.2059 116.461 40.7581C117.553 41.502 117.981 41.4614 118.049 40.7354C118.11 40.3537 118.187 39.9905 118.277 39.6465" stroke="white" stroke-width="2" stroke-linecap="round" stroke-linejoin="round"/>
<path d="M82.0917 167.936C86.1949 174.328 92.0346 179.419 98.9271 182.613" stroke="white" stroke-width="2" stroke-linecap="round" stroke-linejoin="round"/>
<path d="M50.6488 127.918C54.4601 120.993 59.2241 115.304 65.4855 111.357" stroke="white" stroke-width="2" stroke-linecap="round" stroke-linejoin="round"/>
<path d="M79.7776 177.623C74.9849 183.473 70.6973 188.065 66.0299 192.936C64.7822 200.309 65.372 217.232 67.754 225.104C74.0822 214.578 76.3747 207.886 79.5746 197.045L89.2842 186.247" stroke="white" stroke-width="2" stroke-linecap="round" stroke-linejoin="round"/>
<path d="M37.8313 110.359C39.9729 106.92 42.6014 103.81 45.6353 101.125" stroke="white" stroke-width="2" stroke-linecap="round" stroke-linejoin="round"/>
<path d="M181.819 100.762C184.292 101.012 189.324 102.553 188.398 101.488C187.726 100.862 186.951 100.355 186.107 99.991C182.907 98.4269 179.846 97.9266 176.443 96.9965L150.055 90.599L139.044 81.4458" stroke="white" stroke-width="2" stroke-linecap="round" stroke-linejoin="round"/>
<path d="M97.4274 103.893L77.0781 133.793L57.4093 118.208" stroke="white" stroke-width="2" stroke-linecap="round" stroke-linejoin="round"/>
<path d="M153.053 35.8126C153.206 36.7324 153.082 37.6767 152.698 38.5262C152.314 39.3756 151.686 40.0922 150.895 40.585C150.104 41.0779 149.184 41.3251 148.252 41.2952C147.32 41.2654 146.418 40.96 145.66 40.4174C144.902 39.875 144.322 39.1198 143.992 38.2474C143.664 37.3752 143.601 36.4249 143.812 35.5168C144.022 34.6087 144.498 33.7835 145.178 33.1457C145.858 32.5079 146.712 32.0859 147.631 31.9333C148.865 31.7294 150.129 32.0235 151.145 32.7508C152.161 33.4782 152.848 34.5795 153.053 35.8126Z" stroke="white" stroke-width="2" stroke-linecap="round" stroke-linejoin="round"/>
<path d="M165.894 33.6798C166.047 34.5996 165.922 35.5439 165.538 36.3934C165.155 37.2428 164.527 37.9594 163.735 38.4522C162.945 38.9451 162.024 39.1923 161.093 39.1624C160.16 39.1326 159.259 38.827 158.501 38.2846C157.742 37.7422 157.162 36.987 156.832 36.1146C156.504 35.2424 156.441 34.2921 156.652 33.3839C156.862 32.4759 157.339 31.6507 158.018 31.0129C158.699 30.3751 159.552 29.9531 160.472 29.8005C161.705 29.5966 162.968 29.8905 163.986 30.618C165.002 31.3454 165.688 32.4467 165.894 33.6798Z" stroke="white" stroke-width="2" stroke-linecap="round" stroke-linejoin="round"/>
<path d="M178.961 31.5023C179.114 32.422 178.99 33.3663 178.605 34.2159C178.222 35.0653 177.594 35.7818 176.802 36.2747C176.012 36.7676 175.091 37.0146 174.16 36.9849C173.227 36.955 172.326 36.6495 171.568 36.107C170.809 35.5645 170.229 34.8094 169.9 33.9371C169.571 33.0649 169.508 32.1146 169.719 31.2064C169.929 30.2982 170.406 29.4732 171.085 28.8354C171.766 28.1975 172.62 27.7756 173.539 27.623C174.772 27.4187 176.037 27.7126 177.053 28.44C178.07 29.1675 178.757 30.269 178.961 31.5023Z" stroke="white" stroke-width="2" stroke-linecap="round" stroke-linejoin="round"/>
<path d="M43.9338 14.896L35.2677 27.1011" stroke="white" stroke-width="2" stroke-linecap="round" stroke-linejoin="round"/>
<path d="M45.7033 25.3316L33.5209 16.6655" stroke="white" stroke-width="2" stroke-linecap="round" stroke-linejoin="round"/>
<path d="M9.51913 146.452L9.24689 146.543L17.618 153.961L6.56995 166.098L12.491 171.384L23.5391 159.224L31.8863 166.644L38.1262 137.266L9.51913 146.452Z" stroke="white" stroke-width="2" stroke-linecap="round" stroke-linejoin="round"/>
<path d="M155.617 163.194L138.058 157.75L152.827 147.496" stroke="white" stroke-width="2" stroke-linecap="round" stroke-linejoin="round"/>
<path d="M170.045 160.881L184.7 150.037L167.255 145.159" stroke="white" stroke-width="2" stroke-linecap="round" stroke-linejoin="round"/>
<path d="M164.555 138.693L158.135 169.955" stroke="white" stroke-width="2" stroke-linecap="round" stroke-linejoin="round"/>
<path d="M22.5236 109.394L34.2922 181.956C34.7127 184.431 35.6168 186.798 36.9528 188.923C38.2889 191.048 40.0306 192.889 42.0784 194.341C44.1262 195.792 46.4401 196.826 48.8877 197.383C51.3354 197.94 53.8687 198.009 56.343 197.586L65.7784 195.999" stroke="white" stroke-width="2" stroke-linecap="round" stroke-linejoin="round"/>
<path d="M206.072 108.603L213.081 151.806C213.503 154.28 213.434 156.814 212.878 159.261C212.32 161.709 211.286 164.023 209.835 166.071C208.383 168.119 206.542 169.861 204.417 171.197C202.292 172.533 199.925 173.437 197.45 173.857L83.197 193.071" stroke="white" stroke-width="2" stroke-linecap="round" stroke-linejoin="round"/>
<path d="M90.4424 33.4072L31.0255 43.3895C28.5508 43.8102 26.1832 44.7143 24.0581 46.0503C21.9331 47.3862 20.0922 49.1279 18.6405 51.1759C17.1889 53.2237 16.1551 55.5375 15.5982 57.9851C15.0413 60.4327 14.9722 62.9661 15.3948 65.4403L21.2149 101.325" stroke="white" stroke-width="2" stroke-linecap="round" stroke-linejoin="round"/>
<path d="M123.834 27.7975L172.132 19.6829C174.606 19.2602 177.14 19.3294 179.588 19.8863C182.035 20.4431 184.349 21.477 186.397 22.9286C188.445 24.3802 190.187 26.2211 191.523 28.3462C192.859 30.4713 193.763 32.8389 194.183 35.3136L203.139 90.5271" stroke="white" stroke-width="2" stroke-linecap="round" stroke-linejoin="round"/>
<path d="M70.5898 188.126C73.0886 191.559 76.1216 194.569 79.5735 197.042" stroke="white" stroke-width="2" stroke-linecap="round" stroke-linejoin="round"/>
</svg>
