<svg width="240" height="240" viewBox="0 0 240 240" fill="none" xmlns="http://www.w3.org/2000/svg">
<path d="M198.412 81.087C198.403 81.3005 198.313 81.5025 198.159 81.6506C198.006 81.7988 197.8 81.8815 197.587 81.8815C197.373 81.8815 197.167 81.7988 197.013 81.6506C196.86 81.5025 196.769 81.3005 196.761 81.087C196.769 80.8736 196.86 80.6716 197.013 80.5235C197.167 80.3753 197.373 80.2925 197.587 80.2925C197.8 80.2925 198.006 80.3753 198.159 80.5235C198.313 80.6716 198.403 80.8736 198.412 81.087Z" stroke="white" stroke-width="2"/>
<path d="M182.336 175.867L178.605 185.002" stroke="white" stroke-width="2" stroke-linecap="round" stroke-linejoin="round"/>
<path d="M81.1322 70.8223V62.7969C81.1382 61.5324 81.3977 60.282 81.8954 59.1196C82.393 57.9572 83.1188 56.9063 84.0297 56.0293C84.9406 55.1522 86.0181 54.4668 87.1985 54.0134C88.379 53.5601 89.6383 53.3481 90.9021 53.39H145.121C146.383 53.3501 147.642 53.5635 148.822 54.0176C150.001 54.4715 151.078 55.1572 151.988 56.0339C152.899 56.9106 153.623 57.9606 154.122 59.1221C154.621 60.2836 154.881 61.5331 154.888 62.7969V123.187" stroke="white" stroke-width="2" stroke-linecap="round" stroke-linejoin="round"/>
<path d="M160.579 110.638V61.4627C160.578 59.6573 160.222 57.8695 159.531 56.2019C158.838 54.5342 157.824 53.0193 156.547 51.7437C155.269 50.468 153.752 49.4566 152.084 48.7673C150.415 48.078 148.627 47.7244 146.821 47.7266H88.7542C86.948 47.727 85.1597 48.0833 83.4913 48.7751C81.8228 49.4668 80.3071 50.4805 79.0305 51.7582C77.754 53.0359 76.7415 54.5525 76.0513 56.2215C75.361 57.8906 75.0063 59.6792 75.0073 61.4854V70.8221" stroke="white" stroke-width="2" stroke-linecap="round" stroke-linejoin="round"/>
<path d="M190.091 124.023H172.365" stroke="white" stroke-width="2" stroke-linecap="round" stroke-linejoin="round"/>
<path d="M207.93 124.012H219.303C219.989 124.011 220.667 124.145 221.3 124.407C221.934 124.667 222.509 125.052 222.995 125.536C223.48 126.019 223.864 126.594 224.127 127.227C224.39 127.86 224.526 128.538 224.526 129.224V159.182" stroke="white" stroke-width="2" stroke-linecap="round" stroke-linejoin="round"/>
<path d="M154.51 124.024H151L135.946 119.389L140.739 134.085V179.781C140.741 181.166 141.29 182.494 142.27 183.474C143.249 184.453 144.577 185.003 145.962 185.004H199.813" stroke="white" stroke-width="2" stroke-linecap="round" stroke-linejoin="round"/>
<path d="M95.4015 87.3942V76.0452C95.4009 74.6601 94.8504 73.3321 93.871 72.3527C92.8917 71.3734 91.5636 70.8229 90.1786 70.8223H52.6698" stroke="white" stroke-width="2" stroke-linecap="round" stroke-linejoin="round"/>
<path d="M154.888 185.002V192.737C154.887 195.327 153.859 197.811 152.026 199.642C150.195 201.475 147.711 202.503 145.121 202.504H90.8795C88.2891 202.503 85.8051 201.475 83.9734 199.642C82.1419 197.811 81.1125 195.327 81.1119 192.737V131.809" stroke="white" stroke-width="2" stroke-linecap="round" stroke-linejoin="round"/>
<path d="M75.0073 131.801V194.43C75.0063 196.235 75.361 198.024 76.0514 199.692C76.7419 201.36 77.7543 202.876 79.0311 204.153C80.3078 205.43 81.8236 206.443 83.492 207.134C85.1604 207.824 86.9485 208.18 88.7542 208.179H146.839C148.645 208.18 150.433 207.824 152.101 207.134C153.769 206.444 155.285 205.431 156.562 204.154C157.838 202.878 158.851 201.362 159.541 199.694C160.232 198.026 160.587 196.237 160.586 194.432V185.004" stroke="white" stroke-width="2" stroke-linecap="round" stroke-linejoin="round"/>
<path d="M39.4429 70.8223H16.8103C15.4258 70.8238 14.0988 71.3748 13.1201 72.354C12.1416 73.3333 11.5916 74.6608 11.5909 76.0452V107.342" stroke="white" stroke-width="2" stroke-linecap="round" stroke-linejoin="round"/>
<path d="M68.4968 131.801H85.1366L100.172 136.414L95.4015 121.74V104.963" stroke="white" stroke-width="2" stroke-linecap="round" stroke-linejoin="round"/>
<path d="M120.793 208.179C116.176 213.266 110.575 217.365 104.329 220.224C98.0834 223.085 91.3221 224.649 84.4545 224.821C77.5869 224.994 70.7557 223.772 64.3741 221.227C57.9926 218.684 52.1933 214.873 47.3273 210.024C42.4612 205.174 38.6294 199.387 36.0637 193.015C33.498 186.642 32.2518 179.815 32.4003 172.947C32.5489 166.079 34.0891 159.313 36.928 153.057C39.7669 146.801 43.8454 141.186 48.9165 136.552" stroke="white" stroke-width="2" stroke-linecap="round" stroke-linejoin="round"/>
<path d="M105.033 218.713L84.0739 218.175C83.8899 218.158 83.7046 218.186 83.5332 218.255C83.3619 218.324 83.2093 218.433 83.0881 218.573C82.9667 218.712 82.8801 218.877 82.8353 219.057C82.7906 219.235 82.7888 219.423 82.8303 219.603L83.7823 223.492C88.093 223.592 92.4055 223.411 96.6926 222.949C92.7644 224.557 88.6804 225.753 84.5058 226.519L86.4503 232.172C86.4925 232.35 86.5771 232.517 86.697 232.656C86.8168 232.797 86.9685 232.905 87.1391 232.974C87.3097 233.042 87.4944 233.069 87.6774 233.051C87.8606 233.033 88.0368 232.973 88.1913 232.873C94.531 229.736 100.374 225.683 105.533 220.844C105.738 220.717 105.898 220.528 105.991 220.304C106.083 220.082 106.103 219.835 106.048 219.6C105.993 219.364 105.865 219.152 105.683 218.993C105.501 218.834 105.274 218.736 105.033 218.713Z" stroke="white" stroke-width="2" stroke-linecap="round" stroke-linejoin="round"/>
<path d="M193.46 133.384C194.105 133.372 194.749 133.303 195.382 133.181L193.234 135.668" stroke="white" stroke-width="2" stroke-linecap="round" stroke-linejoin="round"/>
<path d="M178.266 157.305C170.579 155.511 163.274 152.356 156.697 147.99C153.885 146.201 151.813 143.457 150.861 140.263C149.911 137.069 150.144 133.639 151.52 130.603L162.529 106.366C168.258 106.753 172.894 107.873 177.135 112.831L167.734 134.899C171.963 137.363 177.185 139.966 182.024 140.913C188.659 142.211 193.465 140.137 193.465 133.384C190.458 133.474 185.483 132.367 190.684 122.893C195.884 113.419 199.343 120.751 198.914 124.747C198.936 125.448 199.298 125.629 200.474 124.815C202.893 123.14 204.51 127.314 199.976 129.133C199.12 129.478 198.191 133.724 199.253 138.969C200.063 142.948 202.85 140.436 211.055 146.109C220.169 152.416 226.755 161.545 230.771 168.333C232.208 170.757 232.737 173.613 232.265 176.392C231.792 179.169 230.35 181.691 228.194 183.504L208.048 200.371C205.173 199.486 202.609 197.8 200.659 195.509C198.709 193.218 197.452 190.418 197.037 187.439L215.006 171.905L204.425 160.669" stroke="white" stroke-width="2" stroke-linecap="round" stroke-linejoin="round"/>
<path d="M45.4798 81.4943C44.8072 80.7601 44.4358 79.7994 44.4397 78.8037C44.9336 79.1239 45.4488 79.4099 45.982 79.6593" stroke="white" stroke-width="2" stroke-linecap="round" stroke-linejoin="round"/>
<path d="M44.5754 69.7142C45.6155 66.1871 50.5897 61.3033 52.3104 68.742L52.6948 71.1387C53.8931 82.0867 48.6928 80.9288 45.9796 79.6626C45.9796 79.6626 44.0827 82.4674 47.5563 83.0494C48.1133 83.1422 48.4917 83.1505 48.6273 83.1684C45.9141 87.1477 40.8923 87.3964 34.2926 85.158C40.4294 81.6809 42.6381 74.1708 41.8896 73.4234C38.4386 69.982 41.4802 66.7773 43.0879 69.2406C43.8554 70.4175 44.2636 70.3937 44.5575 69.7606L44.5754 69.7142Z" stroke="white" stroke-width="2" stroke-linecap="round" stroke-linejoin="round"/>
<path d="M29.5291 109.209C30.0491 108.328 30.625 107.383 31.2581 106.365L30.869 113.736" stroke="white" stroke-width="2" stroke-linecap="round" stroke-linejoin="round"/>
<path d="M59.3171 103.403C59.4421 100.749 59.374 98.0888 59.1136 95.4443L62.2076 105.528" stroke="white" stroke-width="2" stroke-linecap="round" stroke-linejoin="round"/>
<path d="M34.2879 85.1572C33.0707 85.8562 31.7617 86.3813 30.3989 86.7172C17.9408 89.86 11.2257 106.162 8.02099 117.942C7.18857 120.996 7.55925 124.253 9.0567 127.043C10.5541 129.832 13.0643 131.942 16.0702 132.936C24.8884 135.773 34.0619 137.357 43.3212 137.639C45.901 133.315 46.6804 128.151 45.4917 123.259C38.4694 122.65 31.5155 121.416 24.7131 119.57C26.0023 115.976 27.6183 112.508 29.541 109.209C31.2331 114.908 30.5858 112.713 32.397 118.914C39.8583 120.135 48.6535 120.677 56.9514 118.575C58.2837 113.617 59.0796 108.531 59.3255 103.403C63.365 106.605 67.8912 109.139 72.732 110.91C74.5955 111.638 76.5862 111.985 78.5861 111.931C80.5861 111.876 82.5549 111.422 84.3762 110.593C92.5431 106.873 97.6482 104.082 107.574 96.643C107.642 90.7418 105.019 86.6268 99.6379 84.3432C93.3071 89.0687 85.8006 93.9072 78.9045 96.643C74.1253 93.0695 69.076 89.8718 63.8022 87.079C57.9927 84.248 49.8293 83.3258 48.6309 83.1675" stroke="white" stroke-width="2" stroke-linecap="round" stroke-linejoin="round"/>
<path d="M169.675 95.8147C169.77 95.5439 169.93 95.2994 170.138 95.1014C170.346 94.9035 170.599 94.7578 170.874 94.6759C172.071 94.3594 173.834 96.8691 173.269 100.102C172.978 101.858 171.744 102.65 171.041 100.004" stroke="white" stroke-width="2" stroke-linecap="round" stroke-linejoin="round"/>
<path d="M172.116 95.2185C172.316 95.0204 172.566 94.8798 172.84 94.8115C174.04 94.5033 175.869 96.3264 175.44 99.6048C175.216 101.308 174.193 101.723 173.338 99.6179" stroke="white" stroke-width="2" stroke-linecap="round" stroke-linejoin="round"/>
<path d="M163.752 106.434C166.442 101.596 166.236 100.239 166.94 97.933C167.278 96.8251 167.751 95.8481 168.725 95.6041C169.915 95.3043 171.429 97.3213 170.986 100.483C170.802 101.792 169.042 101.523 168.725 98.1995" stroke="white" stroke-width="2" stroke-linecap="round" stroke-linejoin="round"/>
<path d="M176.322 111.95C177.181 110.073 183.175 99.1265 182.494 98.8135C181.75 98.4708 177.701 102.069 177.701 102.069C177.701 102.069 172.953 102.725 173.269 105.758" stroke="white" stroke-width="2" stroke-linecap="round" stroke-linejoin="round"/>
<path d="M177.678 102.069C179.668 94.1786 178.154 87.5515 177.746 88.7296C176.975 90.9668 176.028 96.9406 175.44 99.5824" stroke="white" stroke-width="2" stroke-linecap="round" stroke-linejoin="round"/>
<path d="M167.641 99.5822C168.092 99.4607 168.571 99.4896 169.004 99.6644" stroke="white" stroke-width="2" stroke-linecap="round" stroke-linejoin="round"/>
<path d="M102.388 85.7675C106.729 84.6596 128.706 87.5763 127.756 89.7242C122.307 90.5572 114.128 89.7338 109.42 92.4374C109.103 92.6195 107.992 93.3894 107.385 93.8167" stroke="white" stroke-width="2" stroke-linecap="round" stroke-linejoin="round"/>
<path d="M102.998 85.6544C111.455 83.6647 120.815 72.5858 112.947 83.8004C112.201 85.0439 111.839 85.7448 112.902 85.9936" stroke="white" stroke-width="2" stroke-linecap="round" stroke-linejoin="round"/>
<path d="M109.736 92.2566C114.032 90.5608 136.574 96.2359 120.928 90.2217" stroke="white" stroke-width="2" stroke-linecap="round" stroke-linejoin="round"/>
<path d="M109.759 92.2338C111.544 91.2818 128.638 98.1838 119.594 92.4825" stroke="white" stroke-width="2" stroke-linecap="round" stroke-linejoin="round"/>
<path d="M57.287 131.801C60.7689 133.705 61.9922 137.118 60.8141 138.042C60.2166 138.353 59.535 138.464 58.8697 138.358" stroke="white" stroke-width="2" stroke-linecap="round" stroke-linejoin="round"/>
<path d="M58.5959 129.789C62.0779 131.693 63.2953 135.098 62.1231 136.029C61.8419 136.21 61.5263 136.333 61.1961 136.386" stroke="white" stroke-width="2" stroke-linecap="round" stroke-linejoin="round"/>
<path d="M43.7841 136.821C47.7493 136.108 51.8366 136.571 55.5413 138.155" stroke="white" stroke-width="2" stroke-linecap="round" stroke-linejoin="round"/>
<path d="M55.3152 133.769C58.6162 135.713 59.4933 138.444 58.3901 139.444C57.0966 140.613 52.7602 140.009 51.5393 136.911" stroke="white" stroke-width="2" stroke-linecap="round" stroke-linejoin="round"/>
<path d="M45.5929 123.978C48.5322 123.888 59.8848 124.408 59.9276 125.267C59.9764 126.262 57.2823 126.827 57.2823 126.827" stroke="white" stroke-width="2" stroke-linecap="round" stroke-linejoin="round"/>
<path d="M45.6155 124.001C49.3078 124.268 52.9373 125.099 56.3778 126.465C56.3778 126.465 65.6979 130.035 69.92 130.965C71.3242 131.273 67.302 132.932 60.3572 131.055" stroke="white" stroke-width="2" stroke-linecap="round" stroke-linejoin="round"/>
<path d="M32.3887 118.914C31.5197 119.433 30.7534 120.107 30.1277 120.903" stroke="white" stroke-width="2" stroke-linecap="round" stroke-linejoin="round"/>
<path d="M56.9431 118.575L57.7797 124.634" stroke="white" stroke-width="2" stroke-linecap="round" stroke-linejoin="round"/>
<path d="M206.234 162.618C204.72 166.507 202.911 172.182 203.497 175.935C196.559 177.766 189.262 177.743 182.335 175.867C176.343 162.595 177.609 153.055 181.453 146.593" stroke="white" stroke-width="2" stroke-linecap="round" stroke-linejoin="round"/>
<path d="M193.924 118.81C200.601 113.196 210.66 116.417 207.252 127.919C207.252 127.919 227.482 130.858 217.155 151.071" stroke="white" stroke-width="2" stroke-linecap="round" stroke-linejoin="round"/>
<path d="M203.499 175.93C204.884 176.608 206.126 177.545 207.162 178.689" stroke="white" stroke-width="2" stroke-linecap="round" stroke-linejoin="round"/>
<path d="M202.572 142.021L199.271 149.55C199.065 150.016 198.713 150.402 198.269 150.651C197.824 150.9 197.311 150.997 196.806 150.93L188.147 149.731C187.797 149.681 187.463 149.554 187.17 149.358C186.876 149.161 186.63 148.902 186.45 148.598C186.27 148.295 186.16 147.955 186.129 147.602C186.097 147.251 186.146 146.897 186.27 146.566L188.418 140.936" stroke="white" stroke-width="2" stroke-linecap="round" stroke-linejoin="round"/>
<path d="M52.3306 68.7419L50.8158 61.1902C50.7601 60.8055 50.581 60.449 50.3054 60.1749C50.0298 59.9007 49.6725 59.7234 49.2876 59.6697C48.9025 59.616 48.5104 59.6889 48.1703 59.8773C47.8302 60.0656 47.5604 60.3593 47.4017 60.7142C47.2673 60.3433 47.0168 60.0256 46.6874 59.8086C46.358 59.5915 45.9673 59.4866 45.5735 59.5094C45.1797 59.5323 44.8038 59.6817 44.5017 59.9354C44.1996 60.1893 43.9875 60.5337 43.8971 60.9177C43.7788 60.4882 43.501 60.1201 43.1204 59.8886C42.7398 59.657 42.2851 59.5795 41.8494 59.6719C41.4136 59.7642 41.0294 60.0195 40.7755 60.3855C40.5215 60.7514 40.4169 61.2006 40.483 61.6412C40.3382 61.2156 40.0332 60.8632 39.6327 60.6588C39.2323 60.4545 38.768 60.4143 38.3383 60.5466C37.9087 60.6791 37.5476 60.9737 37.3316 61.3681C37.1158 61.7625 37.0621 62.2254 37.1819 62.6586C38.0724 65.3396 38.827 68.0639 39.4429 70.8208C40.1784 74.3908 40.5627 78.2203 39.4893 80.2552" stroke="white" stroke-width="2" stroke-linecap="round" stroke-linejoin="round"/>
<path d="M115.864 19.3857C115.864 19.6495 115.785 19.9072 115.639 20.1265C115.493 20.3458 115.284 20.5168 115.041 20.6179C114.797 20.7189 114.529 20.7456 114.271 20.6944C114.012 20.6432 113.774 20.5165 113.588 20.3303C113.401 20.1441 113.274 19.9067 113.222 19.6481C113.17 19.3897 113.196 19.1216 113.296 18.8777C113.396 18.6339 113.567 18.4253 113.786 18.2783C114.005 18.1314 114.262 18.0525 114.526 18.0518C114.88 18.0514 115.22 18.1918 115.471 18.442C115.722 18.6921 115.863 19.0315 115.864 19.3857Z" stroke="white" stroke-width="2" stroke-linecap="round" stroke-linejoin="round"/>
<path d="M121.674 19.3857C121.674 19.6496 121.596 19.9076 121.449 20.1269C121.303 20.3463 121.095 20.5172 120.851 20.6182C120.607 20.7191 120.339 20.7456 120.08 20.6942C119.821 20.6426 119.584 20.5157 119.397 20.3291C119.21 20.1425 119.083 19.9048 119.032 19.646C118.981 19.3873 119.007 19.1191 119.108 18.8752C119.209 18.6315 119.38 18.4232 119.599 18.2765C119.819 18.1301 120.076 18.0518 120.34 18.0518C120.694 18.0524 121.033 18.1931 121.283 18.4431C121.533 18.6932 121.673 19.0322 121.674 19.3857Z" stroke="white" stroke-width="2" stroke-linecap="round" stroke-linejoin="round"/>
<path d="M127.508 19.3857C127.508 19.6496 127.429 19.9076 127.283 20.1269C127.136 20.3463 126.928 20.5172 126.684 20.6182C126.44 20.7191 126.173 20.7456 125.913 20.6942C125.655 20.6426 125.417 20.5157 125.23 20.3291C125.044 20.1425 124.917 19.9048 124.866 19.646C124.814 19.3873 124.84 19.1191 124.941 18.8752C125.042 18.6315 125.213 18.4232 125.432 18.2765C125.653 18.1301 125.91 18.0518 126.174 18.0518C126.527 18.0524 126.866 18.1931 127.116 18.4431C127.366 18.6932 127.507 19.0322 127.508 19.3857Z" stroke="white" stroke-width="2" stroke-linecap="round" stroke-linejoin="round"/>
<path d="M197.869 78.3286H189.028C187.705 78.3286 186.632 79.4016 186.632 80.7253V89.5658C186.632 90.8894 187.705 91.9624 189.028 91.9624H197.869C199.192 91.9624 200.266 90.8894 200.266 89.5658V80.7253C200.266 79.4016 199.192 78.3286 197.869 78.3286Z" stroke="white" stroke-width="2" stroke-linecap="round" stroke-linejoin="round"/>
<path d="M195.857 85.1569C195.857 85.6309 195.716 86.0943 195.453 86.4884C195.189 86.8825 194.815 87.1898 194.377 87.3711C193.939 87.5525 193.458 87.6 192.992 87.5075C192.527 87.4151 192.101 87.1868 191.765 86.8516C191.43 86.5164 191.201 86.0894 191.11 85.6245C191.017 85.1595 191.064 84.6777 191.245 84.2398C191.427 83.8019 191.734 83.4275 192.128 83.1641C192.522 82.9008 192.986 82.7603 193.46 82.7603C194.095 82.7606 194.705 83.0131 195.154 83.4626C195.603 83.9119 195.857 84.5213 195.857 85.1569Z" stroke="white" stroke-width="2" stroke-linecap="round" stroke-linejoin="round"/>
<path d="M174.083 196.6C174.083 196.99 173.968 197.37 173.751 197.693C173.536 198.016 173.229 198.269 172.869 198.418C172.51 198.566 172.114 198.606 171.733 198.529C171.351 198.453 171 198.266 170.725 197.991C170.45 197.717 170.263 197.366 170.187 196.984C170.111 196.603 170.15 196.206 170.299 195.847C170.448 195.488 170.7 195.181 171.024 194.965C171.346 194.749 171.727 194.633 172.116 194.633C172.637 194.633 173.138 194.84 173.507 195.209C173.875 195.578 174.083 196.079 174.083 196.6Z" stroke="white" stroke-width="2" stroke-linecap="round" stroke-linejoin="round"/>
<path d="M62.1768 48.7334V58.5009" stroke="white" stroke-width="2" stroke-linecap="round" stroke-linejoin="round"/>
<path d="M67.0497 53.6172H57.2822" stroke="white" stroke-width="2" stroke-linecap="round" stroke-linejoin="round"/>
<path d="M198.389 196.713C196.228 199.271 194.383 202.08 192.895 205.079C191.999 206.556 191.263 208.125 190.701 209.759C189.11 214.369 190.448 214.255 192.872 210.641C199.033 201.454 201.939 200.557 204.177 198.567" stroke="white" stroke-width="2" stroke-linecap="round" stroke-linejoin="round"/>
<path d="M191.199 208.403C189.752 209.403 188.179 210.209 186.521 210.797C186.045 210.926 185.301 210.549 187.606 208.559C188.104 208.129 190.16 206.273 190.862 205.574C192.331 204.229 193.721 202.803 195.027 201.301" stroke="white" stroke-width="2" stroke-linecap="round" stroke-linejoin="round"/>
<path d="M196.738 198.816C197.711 196.781 193.008 198.133 190.95 198.459C189.096 198.75 186.904 198.395 191.561 196.108C193.992 194.94 196.209 193.372 198.118 191.467" stroke="white" stroke-width="2" stroke-linecap="round" stroke-linejoin="round"/>
<path d="M108.9 26.1009L106.729 31.8212L112.427 29.4924C114.78 31.0266 117.531 31.8363 120.34 31.8212C127.869 31.8212 133.974 26.2591 133.974 19.3857C133.974 12.5123 127.892 6.9502 120.363 6.9502C112.834 6.9502 106.729 12.5123 106.729 19.3857C106.742 21.7945 107.5 24.1403 108.9 26.1009Z" stroke="white" stroke-width="2" stroke-linecap="round" stroke-linejoin="round"/>
<path d="M215.007 171.91L216.726 170.576" stroke="white" stroke-width="2" stroke-linecap="round" stroke-linejoin="round"/>
<path d="M78.8962 96.6431L80.705 97.9318" stroke="white" stroke-width="2" stroke-linecap="round" stroke-linejoin="round"/>
<path d="M24.6786 119.547L23.8195 121.604" stroke="white" stroke-width="2" stroke-linecap="round" stroke-linejoin="round"/>
<path d="M40.9352 125.019C40.6849 125.019 40.4399 125.092 40.2318 125.232C40.0236 125.371 39.8613 125.568 39.7655 125.8C39.6697 126.031 39.6446 126.286 39.6933 126.532C39.7423 126.777 39.8628 127.003 40.0399 127.18C40.2169 127.357 40.4426 127.477 40.6882 127.527C40.9338 127.576 41.1883 127.551 41.4198 127.454C41.6511 127.358 41.8489 127.196 41.988 126.988C42.1271 126.78 42.2014 126.535 42.2014 126.285C42.1962 125.95 42.0611 125.631 41.8248 125.395C41.5884 125.159 41.2694 125.023 40.9352 125.019Z" stroke="white" stroke-width="2"/>
<path d="M22.5533 131.937C23.2525 131.937 23.8194 131.371 23.8194 130.671C23.8194 129.971 23.2525 129.405 22.5533 129.405C21.8539 129.405 21.2871 129.971 21.2871 130.671C21.2871 131.371 21.8539 131.937 22.5533 131.937Z" stroke="white" stroke-width="2"/>
<path d="M13.5997 115.002C14.2989 115.002 14.8658 114.435 14.8658 113.736C14.8658 113.037 14.2989 112.47 13.5997 112.47C12.9004 112.47 12.3335 113.037 12.3335 113.736C12.3335 114.435 12.9004 115.002 13.5997 115.002Z" stroke="white" stroke-width="2"/>
<path d="M28.8615 104.262C29.5607 104.262 30.1277 103.695 30.1277 102.996C30.1277 102.297 29.5607 101.73 28.8615 101.73C28.1623 101.73 27.5953 102.297 27.5953 102.996C27.5953 103.695 28.1623 104.262 28.8615 104.262Z" stroke="white" stroke-width="2"/>
<path d="M34.6949 87.0112C34.4444 87.0112 34.1996 87.0855 33.9915 87.2246C33.7832 87.3637 33.6209 87.5615 33.5251 87.7928C33.4292 88.0242 33.4042 88.2788 33.453 88.5244C33.5019 88.7701 33.6225 88.9956 33.7995 89.1726C33.9766 89.3497 34.2022 89.4704 34.4479 89.5192C34.6935 89.5681 34.948 89.543 35.1795 89.4472C35.4108 89.3514 35.6085 89.1891 35.7477 88.9808C35.8868 88.7726 35.9611 88.5278 35.9611 88.2774C35.9558 87.9432 35.8208 87.6242 35.5844 87.3879C35.3481 87.1515 35.0291 87.0165 34.6949 87.0112Z" stroke="white" stroke-width="2"/>
<path d="M47.3791 99.7178C47.1286 99.7178 46.8838 99.792 46.6756 99.9311C46.4674 100.07 46.3051 100.268 46.2093 100.499C46.1134 100.731 46.0884 100.985 46.1372 101.231C46.1861 101.477 46.3067 101.702 46.4837 101.879C46.6608 102.056 46.8864 102.177 47.1321 102.226C47.3777 102.275 47.6322 102.249 47.8637 102.154C48.095 102.058 48.2927 101.896 48.4319 101.687C48.571 101.479 48.6453 101.234 48.6453 100.984C48.64 100.65 48.505 100.331 48.2686 100.094C48.0323 99.8581 47.7133 99.723 47.3791 99.7178Z" stroke="white" stroke-width="2"/>
<path d="M37.0915 111.204C36.841 111.204 36.5962 111.278 36.3881 111.417C36.1798 111.556 36.0175 111.754 35.9217 111.985C35.8258 112.217 35.8008 112.471 35.8496 112.717C35.8985 112.962 36.0191 113.188 36.1962 113.365C36.3732 113.542 36.5988 113.663 36.8445 113.712C37.0901 113.76 37.3446 113.735 37.5761 113.64C37.8074 113.544 38.0052 113.381 38.1443 113.173C38.2834 112.965 38.3577 112.72 38.3577 112.47C38.3579 112.303 38.3254 112.139 38.2619 111.985C38.1984 111.831 38.1051 111.691 37.9875 111.574C37.8699 111.456 37.7302 111.363 37.5764 111.299C37.4227 111.236 37.2579 111.203 37.0915 111.204Z" stroke="white" stroke-width="2"/>
<path d="M65.8954 104.262C66.5947 104.262 67.1616 103.695 67.1616 102.996C67.1616 102.297 66.5947 101.73 65.8954 101.73C65.1961 101.73 64.6293 102.297 64.6293 102.996C64.6293 103.695 65.1961 104.262 65.8954 104.262Z" stroke="white" stroke-width="2"/>
<path d="M78.0822 98.2231C77.8318 98.2231 77.5869 98.2974 77.3788 98.4365C77.1705 98.5756 77.0082 98.7734 76.9124 99.0047C76.8166 99.2361 76.7915 99.4907 76.8403 99.7364C76.8892 99.982 77.0098 100.207 77.1868 100.385C77.3639 100.562 77.5895 100.682 77.8352 100.731C78.0808 100.78 78.3354 100.755 78.5668 100.659C78.7981 100.563 78.9959 100.401 79.135 100.193C79.2741 99.9845 79.3484 99.7397 79.3484 99.4893C79.3431 99.1552 79.2081 98.8361 78.9717 98.5998C78.7354 98.3634 78.4164 98.2284 78.0822 98.2231Z" stroke="white" stroke-width="2"/>
<path d="M93.4344 103.516C94.1336 103.516 94.7005 102.949 94.7005 102.25C94.7005 101.551 94.1336 100.984 93.4344 100.984C92.7351 100.984 92.1682 101.551 92.1682 102.25C92.1682 102.949 92.7351 103.516 93.4344 103.516Z" stroke="white" stroke-width="2"/>
<path d="M100.15 89.8824C100.849 89.8824 101.416 89.3155 101.416 88.6163C101.416 87.917 100.849 87.3501 100.15 87.3501C99.4502 87.3501 98.8834 87.917 98.8834 88.6163C98.8834 89.3155 99.4502 89.8824 100.15 89.8824Z" stroke="white" stroke-width="2"/>
<path d="M53.5742 113.713C53.3237 113.713 53.0789 113.788 52.8706 113.927C52.6625 114.066 52.5002 114.264 52.4044 114.495C52.3085 114.726 52.2835 114.981 52.3323 115.227C52.3812 115.472 52.5017 115.698 52.6788 115.875C52.8559 116.052 53.0815 116.173 53.3271 116.221C53.5727 116.27 53.8273 116.245 54.0586 116.149C54.2901 116.054 54.4877 115.891 54.6268 115.683C54.7661 115.475 54.8403 115.23 54.8403 114.98C54.8351 114.645 54.7 114.326 54.4637 114.09C54.2274 113.854 53.9083 113.719 53.5742 113.713Z" stroke="white" stroke-width="2"/>
<path d="M56.0839 89.0909C56.7832 89.0909 57.3501 88.524 57.3501 87.8248C57.3501 87.1255 56.7832 86.5586 56.0839 86.5586C55.3845 86.5586 54.8177 87.1255 54.8177 87.8248C54.8177 88.524 55.3845 89.0909 56.0839 89.0909Z" stroke="white" stroke-width="2"/>
</svg>
