<svg width="247" height="40" viewBox="0 0 247 40" fill="none" xmlns="http://www.w3.org/2000/svg">
<g clip-path="url(#clip0_28_102)">
<path d="M20 0C31.046 0 40 8.954 40 20V34C40 35.5913 39.3678 37.1174 38.2426 38.2426C37.1174 39.3679 35.5913 40 34 40H21V31.226C21 29.224 21.122 27.15 22.172 25.446C22.9237 24.2248 23.9293 23.1796 25.1205 22.3813C26.3117 21.5829 27.6607 21.0501 29.076 20.819L29.459 20.757C29.6169 20.703 29.754 20.601 29.851 20.4653C29.9481 20.3296 30.0002 20.1669 30.0002 20C30.0002 19.8331 29.9481 19.6704 29.851 19.5347C29.754 19.399 29.6169 19.297 29.459 19.243L29.076 19.181C27.0082 18.8432 25.0987 17.8644 23.6171 16.3829C22.1355 14.9013 21.1568 12.9918 20.819 10.924L20.757 10.541C20.703 10.3831 20.601 10.246 20.4653 10.149C20.3295 10.0519 20.1669 9.99975 20 9.99975C19.8331 9.99975 19.6704 10.0519 19.5347 10.149C19.399 10.246 19.297 10.3831 19.243 10.541L19.181 10.924C18.9499 12.3393 18.4171 13.6883 17.6188 14.8795C16.8204 16.0707 15.7752 17.0763 14.554 17.828C12.85 18.878 10.776 19 8.77399 19H0.0239868C0.546987 8.419 9.28999 0 20 0Z" fill="#151a25"/>
<path d="M0 21H8.774C10.776 21 12.85 21.122 14.554 22.172C15.886 22.9928 17.0072 24.114 17.828 25.446C18.878 27.15 19 29.224 19 31.226V40H6C4.4087 40 2.88258 39.3679 1.75736 38.2426C0.632141 37.1174 0 35.5913 0 34L0 21ZM40 2C40 2.53043 39.7893 3.03914 39.4142 3.41421C39.0391 3.78929 38.5304 4 38 4C37.4696 4 36.9609 3.78929 36.5858 3.41421C36.2107 3.03914 36 2.53043 36 2C36 1.46957 36.2107 0.960859 36.5858 0.585786C36.9609 0.210714 37.4696 0 38 0C38.5304 0 39.0391 0.210714 39.4142 0.585786C39.7893 0.960859 40 1.46957 40 2Z" fill="#151a25"/>
</g>
<path d="M54.548 30.5V10.9H63.228C64.4413 10.9 65.5427 11.18 66.532 11.74C67.5213 12.2813 68.296 13.0187 68.856 13.952C69.4347 14.8853 69.724 15.9493 69.724 17.144C69.724 18.32 69.4347 19.3933 68.856 20.364C68.296 21.316 67.5213 22.072 66.532 22.632C65.5427 23.192 64.4413 23.472 63.228 23.472H58.608V30.5H54.548ZM65.664 30.5L60.68 21.652L64.992 20.952L70.536 30.528L65.664 30.5ZM58.608 20.056H63.032C63.536 20.056 63.9747 19.944 64.348 19.72C64.74 19.4773 65.0387 19.1507 65.244 18.74C65.4493 18.3107 65.552 17.8347 65.552 17.312C65.552 16.752 65.4307 16.2667 65.188 15.856C64.9453 15.4453 64.5907 15.128 64.124 14.904C63.6573 14.6613 63.116 14.54 62.5 14.54H58.608V20.056ZM78.416 30.78C77.3334 30.78 76.4 30.5467 75.616 30.08C74.8507 29.5947 74.2534 28.9133 73.824 28.036C73.4134 27.14 73.208 26.0667 73.208 24.816V15.688H77.184V24.172C77.184 24.844 77.296 25.432 77.52 25.936C77.744 26.4213 78.0614 26.7947 78.472 27.056C78.8827 27.3173 79.3867 27.448 79.984 27.448C80.4134 27.448 80.8147 27.3827 81.188 27.252C81.5614 27.1027 81.8787 26.8973 82.14 26.636C82.4014 26.3747 82.6067 26.0667 82.756 25.712C82.9054 25.3573 82.98 24.9747 82.98 24.564V15.688H86.956V30.5H83.176L83.036 27.448L83.764 27.112C83.54 27.8027 83.1667 28.428 82.644 28.988C82.1214 29.548 81.496 29.9867 80.768 30.304C80.04 30.6213 79.256 30.78 78.416 30.78ZM96.5008 30.78C95.2688 30.78 94.1581 30.444 93.1688 29.772C92.1794 29.1 91.3954 28.1853 90.8167 27.028C90.2381 25.8707 89.9488 24.5453 89.9488 23.052C89.9488 21.5587 90.2381 20.2427 90.8167 19.104C91.4141 17.9467 92.2168 17.0413 93.2248 16.388C94.2328 15.716 95.3808 15.38 96.6688 15.38C97.3968 15.38 98.0594 15.492 98.6568 15.716C99.2728 15.9213 99.8048 16.2107 100.253 16.584C100.719 16.9573 101.111 17.3867 101.429 17.872C101.746 18.3573 101.97 18.88 102.101 19.44L101.261 19.3V15.688H105.209V30.5H101.205V26.944L102.101 26.86C101.951 27.3827 101.709 27.8773 101.373 28.344C101.037 28.8107 100.617 29.2307 100.113 29.604C99.6274 29.9587 99.0768 30.248 98.4608 30.472C97.8448 30.6773 97.1914 30.78 96.5008 30.78ZM97.5928 27.336C98.3394 27.336 98.9928 27.1587 99.5528 26.804C100.113 26.4493 100.542 25.9547 100.841 25.32C101.158 24.6667 101.317 23.9107 101.317 23.052C101.317 22.212 101.158 21.4747 100.841 20.84C100.542 20.2053 100.113 19.7107 99.5528 19.356C98.9928 18.9827 98.3394 18.796 97.5928 18.796C96.8648 18.796 96.2208 18.9827 95.6608 19.356C95.1194 19.7107 94.6901 20.2053 94.3728 20.84C94.0554 21.4747 93.8968 22.212 93.8968 23.052C93.8968 23.9107 94.0554 24.6667 94.3728 25.32C94.6901 25.9547 95.1194 26.4493 95.6608 26.804C96.2208 27.1587 96.8648 27.336 97.5928 27.336ZM109.195 30.5V15.688H113.003L113.115 18.712L112.331 19.048C112.536 18.376 112.9 17.7693 113.423 17.228C113.964 16.668 114.608 16.22 115.355 15.884C116.102 15.548 116.886 15.38 117.707 15.38C118.827 15.38 119.76 15.604 120.507 16.052C121.272 16.5 121.842 17.1813 122.215 18.096C122.607 18.992 122.803 20.1027 122.803 21.428V30.5H118.827V21.736C118.827 21.064 118.734 20.504 118.547 20.056C118.36 19.608 118.071 19.2813 117.679 19.076C117.306 18.852 116.839 18.7587 116.279 18.796C115.831 18.796 115.411 18.8707 115.019 19.02C114.646 19.1507 114.319 19.3467 114.039 19.608C113.778 19.8693 113.563 20.168 113.395 20.504C113.246 20.84 113.171 21.204 113.171 21.596V30.5H111.211C110.782 30.5 110.399 30.5 110.063 30.5C109.727 30.5 109.438 30.5 109.195 30.5ZM133.361 36.94C132.185 36.94 131.028 36.7627 129.889 36.408C128.75 36.072 127.826 35.6333 127.117 35.092L128.517 32.236C128.89 32.4973 129.32 32.7307 129.805 32.936C130.29 33.1413 130.794 33.3 131.317 33.412C131.858 33.524 132.409 33.58 132.969 33.58C133.94 33.58 134.733 33.4307 135.349 33.132C135.984 32.8333 136.46 32.3853 136.777 31.788C137.094 31.2093 137.253 30.4627 137.253 29.548V26.972L137.925 27.112C137.813 27.728 137.505 28.2973 137.001 28.82C136.497 29.324 135.862 29.7347 135.097 30.052C134.332 30.3507 133.548 30.5 132.745 30.5C131.364 30.5 130.141 30.1827 129.077 29.548C128.013 28.9133 127.173 28.036 126.557 26.916C125.941 25.796 125.633 24.508 125.633 23.052C125.633 21.5587 125.932 20.2427 126.529 19.104C127.145 17.9467 127.976 17.0413 129.021 16.388C130.085 15.716 131.289 15.38 132.633 15.38C133.193 15.38 133.725 15.4453 134.229 15.576C134.752 15.7067 135.228 15.8933 135.657 16.136C136.105 16.36 136.497 16.6213 136.833 16.92C137.188 17.2 137.477 17.508 137.701 17.844C137.925 18.18 138.065 18.516 138.121 18.852L137.309 19.076L137.421 15.688H141.229V29.38C141.229 30.5933 141.052 31.6667 140.697 32.6C140.342 33.5333 139.82 34.3173 139.129 34.952C138.457 35.6053 137.626 36.1 136.637 36.436C135.666 36.772 134.574 36.94 133.361 36.94ZM133.473 27.308C134.257 27.308 134.938 27.1307 135.517 26.776C136.114 26.4213 136.572 25.9267 136.889 25.292C137.206 24.6573 137.365 23.9107 137.365 23.052C137.365 22.212 137.206 21.4747 136.889 20.84C136.572 20.1867 136.114 19.6827 135.517 19.328C134.938 18.9733 134.257 18.796 133.473 18.796C132.708 18.796 132.026 18.9827 131.429 19.356C130.85 19.7107 130.402 20.2053 130.085 20.84C129.768 21.4747 129.609 22.212 129.609 23.052C129.609 23.892 129.768 24.6387 130.085 25.292C130.402 25.9267 130.85 26.4213 131.429 26.776C132.026 27.1307 132.708 27.308 133.473 27.308ZM149.827 30.5V14.68H144.115V10.9H159.907V14.68H154.027V30.5H149.827ZM167.055 30.78C165.45 30.78 164.05 30.4533 162.855 29.8C161.66 29.1467 160.727 28.2507 160.055 27.112C159.383 25.9733 159.047 24.6667 159.047 23.192C159.047 22.0533 159.234 21.008 159.607 20.056C159.98 19.104 160.503 18.2827 161.175 17.592C161.847 16.8827 162.64 16.3413 163.555 15.968C164.488 15.576 165.496 15.38 166.579 15.38C167.587 15.38 168.52 15.5667 169.379 15.94C170.238 16.2947 170.975 16.808 171.591 17.48C172.226 18.1333 172.711 18.908 173.047 19.804C173.383 20.7 173.532 21.68 173.495 22.744L173.467 23.976H161.567L160.923 21.54H170.191L169.743 22.044V21.428C169.706 20.924 169.538 20.4667 169.239 20.056C168.959 19.6453 168.595 19.328 168.147 19.104C167.699 18.88 167.195 18.768 166.635 18.768C165.814 18.768 165.114 18.9267 164.535 19.244C163.975 19.5613 163.546 20.028 163.247 20.644C162.948 21.26 162.799 22.0067 162.799 22.884C162.799 23.78 162.986 24.5547 163.359 25.208C163.751 25.8613 164.292 26.3747 164.983 26.748C165.692 27.1027 166.523 27.28 167.475 27.28C168.128 27.28 168.726 27.1773 169.267 26.972C169.808 26.7667 170.387 26.412 171.003 25.908L172.907 28.568C172.366 29.0533 171.768 29.464 171.115 29.8C170.462 30.1173 169.79 30.36 169.099 30.528C168.408 30.696 167.727 30.78 167.055 30.78ZM176.433 30.5V15.688H180.241L180.353 18.712L179.569 19.048C179.775 18.376 180.139 17.7693 180.661 17.228C181.203 16.668 181.847 16.22 182.593 15.884C183.34 15.548 184.124 15.38 184.945 15.38C186.065 15.38 186.999 15.604 187.745 16.052C188.511 16.5 189.08 17.1813 189.453 18.096C189.845 18.992 190.041 20.1027 190.041 21.428V30.5H186.065V21.736C186.065 21.064 185.972 20.504 185.785 20.056C185.599 19.608 185.309 19.2813 184.917 19.076C184.544 18.852 184.077 18.7587 183.517 18.796C183.069 18.796 182.649 18.8707 182.257 19.02C181.884 19.1507 181.557 19.3467 181.277 19.608C181.016 19.8693 180.801 20.168 180.633 20.504C180.484 20.84 180.409 21.204 180.409 21.596V30.5H178.449C178.02 30.5 177.637 30.5 177.301 30.5C176.965 30.5 176.676 30.5 176.433 30.5ZM199.395 30.78C198.163 30.78 197.053 30.444 196.063 29.772C195.074 29.1 194.29 28.1853 193.711 27.028C193.133 25.8707 192.843 24.5453 192.843 23.052C192.843 21.5587 193.133 20.2427 193.711 19.104C194.309 17.9467 195.111 17.0413 196.119 16.388C197.127 15.716 198.275 15.38 199.563 15.38C200.291 15.38 200.954 15.492 201.551 15.716C202.167 15.9213 202.699 16.2107 203.147 16.584C203.614 16.9573 204.006 17.3867 204.323 17.872C204.641 18.3573 204.865 18.88 204.995 19.44L204.155 19.3V15.688H208.103V30.5H204.099V26.944L204.995 26.86C204.846 27.3827 204.603 27.8773 204.267 28.344C203.931 28.8107 203.511 29.2307 203.007 29.604C202.522 29.9587 201.971 30.248 201.355 30.472C200.739 30.6773 200.086 30.78 199.395 30.78ZM200.487 27.336C201.234 27.336 201.887 27.1587 202.447 26.804C203.007 26.4493 203.437 25.9547 203.735 25.32C204.053 24.6667 204.211 23.9107 204.211 23.052C204.211 22.212 204.053 21.4747 203.735 20.84C203.437 20.2053 203.007 19.7107 202.447 19.356C201.887 18.9827 201.234 18.796 200.487 18.796C199.759 18.796 199.115 18.9827 198.555 19.356C198.014 19.7107 197.585 20.2053 197.267 20.84C196.95 21.4747 196.791 22.212 196.791 23.052C196.791 23.9107 196.95 24.6667 197.267 25.32C197.585 25.9547 198.014 26.4493 198.555 26.804C199.115 27.1587 199.759 27.336 200.487 27.336ZM212.09 30.5V15.688H215.898L216.01 18.712L215.226 19.048C215.431 18.376 215.795 17.7693 216.318 17.228C216.859 16.668 217.503 16.22 218.25 15.884C218.996 15.548 219.78 15.38 220.602 15.38C221.722 15.38 222.655 15.604 223.402 16.052C224.167 16.5 224.736 17.1813 225.11 18.096C225.502 18.992 225.698 20.1027 225.698 21.428V30.5H221.722V21.736C221.722 21.064 221.628 20.504 221.442 20.056C221.255 19.608 220.966 19.2813 220.574 19.076C220.2 18.852 219.734 18.7587 219.174 18.796C218.726 18.796 218.306 18.8707 217.914 19.02C217.54 19.1507 217.214 19.3467 216.934 19.608C216.672 19.8693 216.458 20.168 216.29 20.504C216.14 20.84 216.066 21.204 216.066 21.596V30.5H214.106C213.676 30.5 213.294 30.5 212.958 30.5C212.622 30.5 212.332 30.5 212.09 30.5ZM236.256 36.94C235.08 36.94 233.922 36.7627 232.784 36.408C231.645 36.072 230.721 35.6333 230.012 35.092L231.412 32.236C231.785 32.4973 232.214 32.7307 232.7 32.936C233.185 33.1413 233.689 33.3 234.212 33.412C234.753 33.524 235.304 33.58 235.864 33.58C236.834 33.58 237.628 33.4307 238.244 33.132C238.878 32.8333 239.354 32.3853 239.672 31.788C239.989 31.2093 240.148 30.4627 240.148 29.548V26.972L240.82 27.112C240.708 27.728 240.4 28.2973 239.896 28.82C239.392 29.324 238.757 29.7347 237.992 30.052C237.226 30.3507 236.442 30.5 235.64 30.5C234.258 30.5 233.036 30.1827 231.972 29.548C230.908 28.9133 230.068 28.036 229.452 26.916C228.836 25.796 228.528 24.508 228.528 23.052C228.528 21.5587 228.826 20.2427 229.424 19.104C230.04 17.9467 230.87 17.0413 231.916 16.388C232.98 15.716 234.184 15.38 235.528 15.38C236.088 15.38 236.62 15.4453 237.124 15.576C237.646 15.7067 238.122 15.8933 238.552 16.136C239 16.36 239.392 16.6213 239.728 16.92C240.082 17.2 240.372 17.508 240.596 17.844C240.82 18.18 240.96 18.516 241.016 18.852L240.204 19.076L240.316 15.688H244.124V29.38C244.124 30.5933 243.946 31.6667 243.592 32.6C243.237 33.5333 242.714 34.3173 242.024 34.952C241.352 35.6053 240.521 36.1 239.532 36.436C238.561 36.772 237.469 36.94 236.256 36.94ZM236.368 27.308C237.152 27.308 237.833 27.1307 238.412 26.776C239.009 26.4213 239.466 25.9267 239.784 25.292C240.101 24.6573 240.26 23.9107 240.26 23.052C240.26 22.212 240.101 21.4747 239.784 20.84C239.466 20.1867 239.009 19.6827 238.412 19.328C237.833 18.9733 237.152 18.796 236.368 18.796C235.602 18.796 234.921 18.9827 234.324 19.356C233.745 19.7107 233.297 20.2053 232.98 20.84C232.662 21.4747 232.504 22.212 232.504 23.052C232.504 23.892 232.662 24.6387 232.98 25.292C233.297 25.9267 233.745 26.4213 234.324 26.776C234.921 27.1307 235.602 27.308 236.368 27.308Z" fill="#151a25"/>
<defs>
<clipPath id="clip0_28_102">
<rect width="40" height="40" fill="#151a25"/>
</clipPath>
</defs>
</svg>