<svg width="80" height="80" viewBox="0 0 56 56" fill="none" xmlns="http://www.w3.org/2000/svg">
<path fill-rule="evenodd" clip-rule="evenodd" d="M37.1296 0.564459C35.9528 0.564459 34.9984 1.51846 34.9984 2.69526V8.69246H29.006C27.8288 8.69246 26.8748 9.64646 26.8748 10.8233V17.7497C26.8748 18.9265 27.8288 19.8805 29.006 19.8805H34.9984V25.8733C34.9984 27.0501 35.9528 28.0045 37.1296 28.0045H44.0556C45.2328 28.0045 46.1868 27.0501 46.1868 25.8733V19.8805H52.1796C53.3564 19.8805 54.3104 18.9265 54.3104 17.7497V10.8233C54.3104 9.64646 53.3564 8.69246 52.1796 8.69246H46.1868V2.69126C46.1868 1.51406 45.2328 0.560059 44.0556 0.560059H37.1296V0.564459Z" fill="white"/>
<path d="M9.54478 25.6049H1.68958V42.6537L9.48077 50.4489C12.6792 53.6461 17.0164 55.4413 21.5384 55.4401H46.4424C51.364 55.4405 54.44 50.1129 51.9796 45.8505C50.8372 43.8721 48.7268 42.6537 46.4424 42.6537H33.656L21.6024 30.6001C18.4048 27.4013 14.0676 25.6045 9.54478 25.6049Z" fill="white"/>
<path fill-rule="evenodd" clip-rule="evenodd" d="M28.976 37.9904C29.6952 40.7192 27.1908 43.2028 24.4684 42.4616C23.852 42.2936 23.29 41.9676 22.8384 41.5156L16.6584 35.3352C15.208 33.8852 12.7316 34.5484 12.2008 36.5296C11.9548 37.4488 12.2176 38.43 12.8904 39.1028L19.0708 45.2832C23.5124 49.7272 31.0264 48.3628 33.622 42.6408L28.976 37.9948V37.9904Z" fill="black"/>
</svg>
