<svg width="80" height="80" viewBox="0 0 57 56" fill="none" xmlns="http://www.w3.org/2000/svg">
<g clip-path="url(#clip0_2070_304)">
<path fill-rule="evenodd" clip-rule="evenodd" d="M6.5 0C3.22 0 0.5 2.712 0.5 6V17.412C0.5 33.956 10.54 49.436 26.144 55.524C26.812 55.784 27.604 55.996 28.472 56.004C29.2898 55.9959 30.0987 55.833 30.856 55.524C46.46 49.436 56.5 33.956 56.5 17.412V6C56.5 2.72 53.78 0 50.5 0H6.5Z" fill="white"/>
<path fill-rule="evenodd" clip-rule="evenodd" d="M42.492 13.76C43.0861 14.2881 43.4463 15.0304 43.4936 15.8239C43.5408 16.6174 43.2712 17.3972 42.744 17.992L26.744 35.992C26.2441 36.5551 25.5508 36.9097 24.8016 36.9852C24.0525 37.0608 23.3023 36.8519 22.7 36.4L14.7 30.4C14.0635 29.9226 13.6427 29.2119 13.5302 28.4243C13.4176 27.6366 13.6226 26.8365 14.1 26.2C14.5774 25.5635 15.2881 25.1427 16.0757 25.0302C16.8634 24.9177 17.6635 25.1226 18.3 25.6L24.092 29.944L38.256 14.008C38.5176 13.7127 38.8349 13.4718 39.1897 13.2993C39.5445 13.1268 39.9299 13.0259 40.3237 13.0025C40.7176 12.9791 41.1122 13.0336 41.4849 13.1629C41.8577 13.2922 42.2013 13.4938 42.496 13.756L42.492 13.76Z" fill="black"/>
</g>
<defs>
<clipPath id="clip0_2070_304">
<rect width="80" height="80" fill="black" transform="translate(0.5)"/>
</clipPath>
</defs>
</svg>
