<svg width="80" height="80" viewBox="0 0 56 56" fill="none" xmlns="http://www.w3.org/2000/svg">
<path fill-rule="evenodd" clip-rule="evenodd" d="M24.3616 39.6772C23.5036 39.6788 22.7392 40.2188 22.4512 41.0268L19.6584 48.824H15.8044C13.4576 48.824 11.9904 51.3644 13.164 53.3972C13.7088 54.3404 14.7152 54.9216 15.8044 54.9216H40.1956C42.5428 54.9216 44.0096 52.3808 42.836 50.3484C42.2912 49.4052 41.2848 48.824 40.1956 48.824H36.3416L33.5532 41.0268C33.2644 40.2176 32.4976 39.6772 31.6384 39.6772H24.3616Z" fill="white"/>
<path fill-rule="evenodd" clip-rule="evenodd" d="M5.4668 1.07837C2.7552 1.07837 0.559998 3.27357 0.559998 5.98477V36.8236C0.559998 39.5348 2.7552 41.73 5.4668 41.73H50.5332C53.2448 41.73 55.44 39.5348 55.44 36.8236V5.98477C55.44 3.27357 53.2448 1.07837 50.5332 1.07837H5.4668Z" fill="white"/>
<path d="M5.4668 1.07837C2.7552 1.07837 0.559998 3.27357 0.559998 5.98477V36.8236C0.559998 39.5348 2.7552 41.73 5.4668 41.73H23.9348V1.07837H5.4668Z" fill="white"/>
<path d="M31.6464 35.6323H48.4356C49.0604 35.7087 49.6036 35.2043 49.574 34.5755V29.6971C49.5908 29.3943 49.4532 29.1035 49.208 28.9247L41.85 22.5831C39.7876 20.8711 36.7984 20.8711 34.736 22.5831L31.1584 25.4691C30.8904 25.6035 30.7072 25.8627 30.6708 26.1603V34.6159C30.6704 35.1619 31.1012 35.6103 31.6464 35.6323Z" fill="black"/>
<path d="M16.9264 13.7615H9.81239C7.84079 13.7539 6.60039 15.8831 7.57919 17.5943C8.03719 18.3951 8.88999 18.8875 9.81239 18.8839H16.9264C18.898 18.8759 20.1216 16.7367 19.1292 15.0335C18.6724 14.2491 17.834 13.7651 16.9264 13.7615Z" fill="black"/>
<path d="M13.8776 23.9248H9.81239C7.84079 23.9168 6.60039 26.0464 7.57919 27.7576C8.03719 28.558 8.88999 29.0504 9.81239 29.0468H13.8776C15.8492 29.0388 17.0728 26.9 16.0804 25.1964C15.6232 24.412 14.7852 23.9284 13.8776 23.9248Z" fill="black"/>
</svg>
