<svg width="80" height="80" viewBox="0 0 56 56" fill="none" xmlns="http://www.w3.org/2000/svg">
<g clip-path="url(#clip0_2283_1385)">
<path fill-rule="evenodd" clip-rule="evenodd" d="M28 0C20.5739 0 13.452 2.94999 8.20101 8.20101C2.94999 13.452 0 20.5739 0 28C0 35.4261 2.94999 42.548 8.20101 47.799C13.452 53.05 20.5739 56 28 56C35.4261 56 42.548 53.05 47.799 47.799C53.05 42.548 56 35.4261 56 28C56 20.5739 53.05 13.452 47.799 8.20101C42.548 2.94999 35.4261 0 28 0Z" fill="white"/>
<path fill-rule="evenodd" clip-rule="evenodd" d="M18.32 23.9041C17.2553 23.8688 16.2462 23.4205 15.5063 22.6542C14.7663 21.8878 14.3537 20.8636 14.3558 19.7983C14.3579 18.7331 14.7745 17.7105 15.5174 16.947C16.2603 16.1836 17.2712 15.7392 18.336 15.7081H18.356C19.4207 15.7439 20.4296 16.1926 21.1692 16.9593C21.9088 17.726 22.3209 18.7505 22.3183 19.8158C22.3157 20.8811 21.8986 21.9035 21.1553 22.6666C20.412 23.4297 19.4008 23.8735 18.336 23.9041H18.324H18.32ZM14.372 31.8921C14.1068 31.8921 13.8524 31.9975 13.6649 32.185C13.4774 32.3725 13.372 32.6269 13.372 32.8921C13.372 35.1001 14.452 38.2401 16.776 40.8241C19.136 43.4481 22.796 45.5161 27.936 45.5161C33.076 45.5161 36.736 43.4481 39.096 40.8241C41.42 38.2401 42.496 35.1041 42.496 32.8921C42.496 32.6269 42.3906 32.3725 42.2031 32.185C42.0156 31.9975 41.7612 31.8921 41.496 31.8921H14.376H14.372ZM37.652 23.9041C36.5651 23.9025 35.5234 23.4694 34.7557 22.7001C33.988 21.9307 33.5572 20.888 33.558 19.8011C33.5588 18.7142 33.9911 17.6722 34.7599 16.9039C35.5287 16.1357 36.5711 15.7041 37.658 15.7041C38.7449 15.7041 39.7873 16.1357 40.5561 16.9039C41.3249 17.6722 41.7572 18.7142 41.758 19.8011C41.7588 20.888 41.328 21.9307 40.5603 22.7001C39.7926 23.4694 38.7509 23.9025 37.664 23.9041H37.652Z" fill="black"/>
</g>
<defs>
<clipPath id="clip0_2283_1385">
<rect width="80" height="80" fill="white"/>
</clipPath>
</defs>
</svg>
