<svg width="80" height="80" viewBox="0 0 57 56" fill="none" xmlns="http://www.w3.org/2000/svg">
<g clip-path="url(#clip0_2070_291)">
<path fill-rule="evenodd" clip-rule="evenodd" d="M32.032 0.460055C28.2061 -0.00335994 24.3344 0.811144 21.0195 2.77677C17.7046 4.74239 15.1327 7.74883 13.704 11.3281C10.717 11.6585 7.90192 12.8921 5.63438 14.8643C3.36683 16.8364 1.75471 19.4532 1.01317 22.3654C0.27164 25.2777 0.435967 28.3468 1.48422 31.1632C2.53248 33.9796 4.4148 36.4093 6.87997 38.1281C6.66249 36.8663 6.75135 35.5707 7.13908 34.3504C7.52681 33.1301 8.20206 32.0209 9.10797 31.1161L17.108 23.1161C17.8575 22.3666 18.7485 21.7736 19.7292 21.3714C20.7099 20.9692 21.7608 20.766 22.8207 20.7734C23.8806 20.7808 24.9285 20.9989 25.9035 21.4147C26.8784 21.8306 27.761 22.4361 28.5 23.1961C29.6096 22.0547 31.0344 21.2704 32.5923 20.9433C34.1501 20.6163 35.7701 20.7614 37.245 21.3601C38.7199 21.9588 39.9827 22.9839 40.8718 24.3043C41.7609 25.6247 42.2358 27.1803 42.236 28.7721V36.7721C43.434 36.7701 44.6171 37.0381 45.6974 37.5561C46.7776 38.074 47.7273 38.8287 48.476 39.7641C50.9418 38.7453 53.0317 36.9879 54.4584 34.7333C55.885 32.4787 56.5785 29.8377 56.4435 27.1731C56.3084 24.5085 55.3515 21.9511 53.7043 19.8523C52.057 17.7535 49.8002 16.2163 47.244 15.4521C46.7234 11.6226 44.948 8.07381 42.1954 5.36107C39.4429 2.64832 35.8686 0.924734 32.032 0.460055Z" fill="white"/>
<path fill-rule="evenodd" clip-rule="evenodd" d="M25.7639 28.7721C25.7634 28.1791 25.5872 27.5996 25.2575 27.1068C24.9278 26.6139 24.4595 26.2298 23.9116 26.0029C23.3638 25.7761 22.761 25.7167 22.1794 25.8322C21.5978 25.9478 21.0635 26.2331 20.6439 26.6521L12.6439 34.6521C12.3492 34.9267 12.1128 35.2579 11.9488 35.6259C11.7848 35.9939 11.6967 36.3912 11.6896 36.794C11.6824 37.1968 11.7565 37.5969 11.9074 37.9705C12.0583 38.344 12.2829 38.6834 12.5678 38.9683C12.8526 39.2531 13.192 39.4777 13.5655 39.6286C13.9391 39.7795 14.3392 39.8536 14.742 39.8465C15.1448 39.8394 15.5421 39.7512 15.9101 39.5872C16.2781 39.4233 16.6093 39.1868 16.8839 38.8921L19.7639 36.0121V52.7721C19.7639 53.5677 20.08 54.3308 20.6426 54.8934C21.2052 55.456 21.9683 55.7721 22.7639 55.7721C23.5596 55.7721 24.3226 55.456 24.8852 54.8934C25.4479 54.3308 25.7639 53.5677 25.7639 52.7721V28.7721ZM37.2359 45.5321V28.7721C37.2359 27.9764 36.9198 27.2134 36.3572 26.6508C35.7946 26.0882 35.0316 25.7721 34.2359 25.7721C33.4403 25.7721 32.6772 26.0882 32.1146 26.6508C31.552 27.2134 31.2359 27.9764 31.2359 28.7721V52.7721C31.2364 53.3651 31.4127 53.9446 31.7424 54.4374C32.072 54.9303 32.5404 55.3144 33.0882 55.5412C33.6361 55.7681 34.2389 55.8275 34.8205 55.712C35.4021 55.5964 35.9364 55.3111 36.3559 54.8921L44.3559 46.8921C44.8858 46.3234 45.1743 45.5712 45.1606 44.794C45.1469 44.0168 44.8321 43.2753 44.2824 42.7256C43.7328 42.176 42.9912 41.8611 42.214 41.8474C41.4368 41.8337 40.6846 42.1222 40.1159 42.6521L37.2359 45.5321Z" fill="white"/>
</g>
<defs>
<clipPath id="clip0_2070_291">
<rect width="80" height="80" fill="black" transform="translate(0.5)"/>
</clipPath>
</defs>
</svg>
